<svg xmlns="http://www.w3.org/2000/svg" width="100" height="74.172" viewBox="0 0 100 74.172">
  <g id="Group_106" data-name="Group 106" transform="translate(0)">
    <path id="Path_111" data-name="Path 111" d="M310.227,181.322a2.93,2.93,0,0,1-.367-5.836c9.258-1.18,17.548-3.688,23.343-7.065,5.3-3.088,8.218-6.718,8.218-10.221,0-3.861-3.415-7.021-6.281-8.992a2.93,2.93,0,1,1,3.321-4.827c5.769,3.969,8.819,8.747,8.819,13.82,0,5.757-3.848,11.042-11.127,15.283C329.6,177.3,320.765,180,310.6,181.3a3.111,3.111,0,0,1-.374.023Zm0,0" transform="translate(-247.281 -115.766)" fill="#fff"/>
    <path id="Path_112" data-name="Path 112" d="M49.286,172.157l-7.812-7.812a2.93,2.93,0,0,0-4.144,4.143l2.283,2.283c-8.752-.9-16.7-2.942-22.861-5.9C9.83,161.538,5.86,157.3,5.86,153.232c0-3.448,2.843-7.031,8-10.091a2.93,2.93,0,1,0-2.988-5.041C1.887,143.429,0,149.27,0,153.232c0,6.5,5.048,12.508,14.213,16.916,7.114,3.42,16.315,5.711,26.34,6.6l-3.223,3.223a2.93,2.93,0,0,0,4.144,4.144l7.813-7.812a2.931,2.931,0,0,0,0-4.144Zm0,0" transform="translate(0 -110.798)" fill="#fff"/>
    <path id="Path_113" data-name="Path 113" d="M105.878,109.1v-.7c0-2.486-1.522-2.969-3.563-2.969-1.262,0-1.67-1.113-1.67-2.226s.408-2.227,1.67-2.227c1.41,0,2.895-.185,2.895-3.191,0-2.152-1.225-2.672-2.747-2.672-1.818,0-2.746.446-2.746,1.893,0,1.261-.557,2.115-2.709,2.115-2.672,0-3.005-.557-3.005-2.338,0-2.894,2.077-6.642,8.46-6.642,4.713,0,8.276,1.707,8.276,6.717,0,2.708-1,5.232-2.857,6.086a5.379,5.379,0,0,1,3.785,5.455v.7c0,6.086-4.193,8.387-9.389,8.387-6.383,0-8.832-3.9-8.832-7.014,0-1.67.7-2.116,2.746-2.116,2.375,0,2.969.52,2.969,1.93,0,1.744,1.633,2.152,3.3,2.152C104.987,112.436,105.878,111.508,105.878,109.1Zm0,0" transform="translate(-75.194 -72.529)" fill="#fff"/>
    <path id="Path_114" data-name="Path 114" d="M226.994,108.39v.334c0,6.383-3.971,8.758-9.092,8.758s-9.129-2.375-9.129-8.758V98.89c0-6.383,4.119-8.758,9.464-8.758,6.271,0,8.758,3.9,8.758,6.976,0,1.781-.854,2.338-2.709,2.338-1.6,0-3.006-.408-3.006-2.115,0-1.41-1.484-2.152-3.228-2.152-2.19,0-3.489,1.151-3.489,3.711v3.339A5.935,5.935,0,0,1,219.2,100.6c4.23,0,7.793,1.855,7.793,7.793Zm-12.432.742c0,2.56,1.262,3.674,3.34,3.674s3.3-1.113,3.3-3.674V108.8c0-2.709-1.225-3.748-3.34-3.748-2,0-3.3.965-3.3,3.414Zm0,0" transform="translate(-167.997 -72.529)" fill="#fff"/>
    <path id="Path_115" data-name="Path 115" d="M325.055,108.725V98.89c0-6.383,3.97-8.758,9.092-8.758s9.129,2.375,9.129,8.758v9.834c0,6.383-4.008,8.758-9.129,8.758S325.055,115.107,325.055,108.725Zm12.431-9.834c0-2.56-1.261-3.711-3.339-3.711s-3.3,1.151-3.3,3.711v9.834c0,2.56,1.225,3.711,3.3,3.711s3.339-1.151,3.339-3.711Zm0,0" transform="translate(-261.568 -72.529)" fill="#fff"/>
    <path id="Path_116" data-name="Path 116" d="M418.141,17.578a8.789,8.789,0,1,1,8.789-8.789A8.8,8.8,0,0,1,418.141,17.578Zm0-11.719a2.93,2.93,0,1,0,2.93,2.93A2.933,2.933,0,0,0,418.141,5.859Zm0,0" transform="translate(-329.4)" fill="#fff"/>
  </g>
</svg>
