<svg xmlns="http://www.w3.org/2000/svg" width="45" height="45" viewBox="0 0 45 45">
  <g id="Group_33" data-name="Group 33" transform="translate(0 -0.001)">
    <g id="Group_28" data-name="Group 28" transform="translate(0 0.001)">
      <g id="Group_27" data-name="Group 27" transform="translate(0 0)">
        <path id="Path_52" data-name="Path 52" d="M45,33.609a8.06,8.06,0,0,0-1.476-4.422,7.932,7.932,0,0,0-4.08-2.944L34.926,24.79a.879.879,0,1,0-.539,1.673L38.9,27.917a6.261,6.261,0,0,1,.392,11.778L30.983,43a3.148,3.148,0,0,1-3.807-4.634,9.689,9.689,0,0,0,.438-9.75l-1.379-2.624a5.081,5.081,0,0,0,.812-5.793l2.38-1.25A7.928,7.928,0,0,1,37.4,19.3a4.906,4.906,0,0,0,7.222-5.932l-3.3-8.31a7.932,7.932,0,0,0-3.209-3.875,8.183,8.183,0,0,0-8.931.3,7.932,7.932,0,0,0-2.944,4.08L22.423,17.418a5.062,5.062,0,0,0-2.222.553l-1.26-2.4A7.928,7.928,0,0,1,19.3,7.6a4.83,4.83,0,0,0-.33-5.777,4.829,4.829,0,0,0-5.6-1.446l-8.31,3.3A7.932,7.932,0,0,0,1.182,6.884a8.183,8.183,0,0,0,.3,8.931,7.932,7.932,0,0,0,4.08,2.944l5.855,1.885a.879.879,0,0,0,.539-1.673L6.1,17.086a6.132,6.132,0,0,1-4.338-5.751A6.132,6.132,0,0,1,5.707,5.309l8.31-3.3a3.068,3.068,0,0,1,3.6.928,3.068,3.068,0,0,1,.212,3.707,9.689,9.689,0,0,0-.438,9.75l1.394,2.654a5.082,5.082,0,0,0-.819,5.759l-2.388,1.255A7.928,7.928,0,0,1,7.594,25.7a4.83,4.83,0,0,0-5.777.33,4.83,4.83,0,0,0-1.445,5.6l3.3,8.31a7.932,7.932,0,0,0,3.209,3.875A8.039,8.039,0,0,0,11.111,45q.14,0,.282,0a8.06,8.06,0,0,0,4.422-1.476,7.932,7.932,0,0,0,2.944-4.08l3.811-11.833a5.061,5.061,0,0,0,2.244-.55l1.246,2.371a7.928,7.928,0,0,1-.359,7.979,4.921,4.921,0,0,0,4.082,7.582,5.006,5.006,0,0,0,1.85-.36l8.31-3.3a7.932,7.932,0,0,0,3.875-3.209A8.059,8.059,0,0,0,45,33.609ZM17.085,38.9a6.132,6.132,0,0,1-5.751,4.338,6.133,6.133,0,0,1-6.027-3.946l-3.3-8.31a3.068,3.068,0,0,1,.928-3.6,3.068,3.068,0,0,1,3.707-.212,9.689,9.689,0,0,0,9.75.438l2.638-1.386a5.1,5.1,0,0,0,1.786,1.089Zm5.426-13.05a3.339,3.339,0,1,1,3.339-3.339A3.343,3.343,0,0,1,22.511,25.851Zm3.459-7.077A5.1,5.1,0,0,0,24.18,17.7L27.915,6.1a6.261,6.261,0,0,1,11.778-.392l3.3,8.31a3.148,3.148,0,0,1-4.634,3.807,9.688,9.688,0,0,0-9.75-.438Z" transform="translate(0 -0.001)" fill="#e64853"/>
      </g>
    </g>
    <g id="Group_30" data-name="Group 30" transform="translate(29.439 23.35)">
      <g id="Group_29" data-name="Group 29">
        <path id="Path_53" data-name="Path 53" d="M336.452,265.919a.878.878,0,1,0,.258.621A.886.886,0,0,0,336.452,265.919Z" transform="translate(-334.952 -265.661)" fill="#e64853"/>
      </g>
    </g>
    <g id="Group_32" data-name="Group 32" transform="translate(14.2 20.022)">
      <g id="Group_31" data-name="Group 31">
        <path id="Path_54" data-name="Path 54" d="M163.071,228.049a.88.88,0,1,0,.258.621A.887.887,0,0,0,163.071,228.049Z" transform="translate(-161.571 -227.791)" fill="#e64853"/>
      </g>
    </g>
  </g>
</svg>
