<svg xmlns="http://www.w3.org/2000/svg" width="200" height="60" viewBox="0 0 200 60">
  <g id="Apple_Store" data-name="Apple Store" transform="translate(-975 -6801)">
    <rect id="Rectangle_22" data-name="Rectangle 22" width="200" height="60" rx="10" transform="translate(975 6801)" fill="#fff"/>
    <g id="Group_55" data-name="Group 55" transform="translate(988.718 6816)">
      <g id="Group_54" data-name="Group 54" transform="translate(1.282)">
        <g id="Group_53" data-name="Group 53">
          <path id="Path_67" data-name="Path 67" d="M21.683,12.034a6.785,6.785,0,0,1,3.239-5.712,7,7,0,0,0-5.486-2.969C17.1,3.113,14.88,4.726,13.693,4.726S10.681,3.385,8.744,3.419A7.348,7.348,0,0,0,2.538,7.18C-.107,11.77,1.86,18.57,4.438,22.3c1.261,1.821,2.765,3.867,4.736,3.8,1.9-.076,2.617-1.23,4.915-1.23s2.943,1.23,4.952,1.193c2.045-.039,3.339-1.858,4.589-3.684a16.694,16.694,0,0,0,2.08-4.267A6.638,6.638,0,0,1,21.683,12.034Z" transform="translate(-1.282 3.906)"/>
          <path id="Path_68" data-name="Path 68" d="M11.352,4.791A6.61,6.61,0,0,0,12.913,0,6.715,6.715,0,0,0,8.494,2.271,6.288,6.288,0,0,0,6.9,6.912,5.562,5.562,0,0,0,11.352,4.791Z" transform="translate(5.271)"/>
        </g>
      </g>
    </g>
    <text id="Available_on" data-name="Available on" transform="translate(1025 6813)" fill="#555" font-size="12" font-family="Nunito-Regular, Nunito"><tspan x="0" y="12">Available on</tspan></text>
    <text id="Apple_Store-2" data-name="Apple Store" transform="translate(1025 6833)" fill="#e64853" font-size="16" font-family="Oxanium-Bold, Oxanium" font-weight="700"><tspan x="0" y="13">Apple Store</tspan></text>
  </g>
</svg>
