<svg xmlns="http://www.w3.org/2000/svg" width="32.056" height="35" viewBox="0 0 32.056 35">
  <g id="Group_104" data-name="Group 104" transform="translate(-17.756)">
    <g id="Group_103" data-name="Group 103" transform="translate(17.756)">
      <g id="Group_102" data-name="Group 102" transform="translate(0)">
        <path id="Path_105" data-name="Path 105" d="M46.433,14.468h-.087V12.345a12.345,12.345,0,0,0-24.691,0v2.123h-.52a3.528,3.528,0,0,0-3.379,3.639v5.415a3.422,3.422,0,0,0,3.334,3.508h3.25a.823.823,0,0,0,.783-.861c0-.016,0-.033,0-.049V15.507c0-.52-.3-1.04-.78-1.04h-.953V12.345a10.613,10.613,0,1,1,21.225,0v2.123h-.953c-.476,0-.78.52-.78,1.04V26.12a.823.823,0,0,0,.731.906l.049,0h1l-.087.13a6.844,6.844,0,0,1-5.5,2.729,4.288,4.288,0,0,0-8.49.823A4.332,4.332,0,0,0,34.911,35a4.462,4.462,0,0,0,3.119-1.343,3.812,3.812,0,0,0,1.04-2.079,8.577,8.577,0,0,0,6.887-3.422l.823-1.213a2.949,2.949,0,0,0,3.032-2.989V18.54C49.812,16.677,48.426,14.468,46.433,14.468ZM23.389,25.3H21.136a1.689,1.689,0,0,1-1.648-1.73c0-.015,0-.031,0-.046V18.106A1.8,1.8,0,0,1,21.136,16.2h2.252Zm13.385,7.147a2.556,2.556,0,0,1-1.863.823,2.642,2.642,0,0,1-2.6-2.556,2.556,2.556,0,1,1,5.111,0v0A2.3,2.3,0,0,1,36.774,32.444Zm11.306-8.49c0,1.17-1.126,1.343-1.646,1.343H44.614V16.2h1.819c.953,0,1.646,1.343,1.646,2.339Z" transform="translate(-17.756)" fill="#e64853"/>
      </g>
    </g>
  </g>
</svg>
