<svg xmlns="http://www.w3.org/2000/svg" width="100" height="99.486" viewBox="0 0 100 99.486">
  <g id="Group_112" data-name="Group 112" transform="translate(-0.001 -1.318)">
    <g id="Group_107" data-name="Group 107" transform="translate(0.001 1.318)">
      <g id="Group_106" data-name="Group 106" transform="translate(0 0)">
        <path id="Path_111" data-name="Path 111" d="M99.984,45.29a2.945,2.945,0,0,0-1.151-2.04l-7.921-6,2.882-9.51a2.945,2.945,0,0,0-2.149-3.722l-9.677-2.26L80.733,11.9a2.945,2.945,0,0,0-3.477-2.526L67.5,11.245l-5.139-8.5a2.945,2.945,0,0,0-4.2-.894L50,7.526l-8.154-5.68a2.945,2.945,0,0,0-4.2.894L32.5,11.245,22.744,9.373A2.945,2.945,0,0,0,19.268,11.9l-1.235,9.86-9.677,2.26a2.945,2.945,0,0,0-2.149,3.722l2.882,9.51-7.921,6a2.945,2.945,0,0,0-.449,4.274l6.5,7.516-4.8,8.7a2.945,2.945,0,0,0,1.328,4.087l9,4.222-.842,9.9a2.945,2.945,0,0,0,2.876,3.194l9.936.2,3.258,9.388A2.945,2.945,0,0,0,31.9,96.482l9.157-3.86,6.8,7.251a2.945,2.945,0,0,0,4.3,0l6.8-7.251,9.157,3.86a2.945,2.945,0,0,0,3.926-1.748l3.259-9.388,9.935-.2A2.945,2.945,0,0,0,88.1,81.954l-.842-9.9,9-4.222a2.945,2.945,0,0,0,1.328-4.087l-4.8-8.7,6.5-7.516A2.947,2.947,0,0,0,99.984,45.29Zm-13.351,10.8,4.27,7.747L82.9,67.592a2.945,2.945,0,0,0-1.683,2.915l.749,8.814-8.844.176a2.945,2.945,0,0,0-2.723,1.979l-2.9,8.357L59.342,86.4a2.945,2.945,0,0,0-3.293.7L50,93.552,43.952,87.1a2.944,2.944,0,0,0-3.293-.7l-8.152,3.436-2.9-8.357A2.945,2.945,0,0,0,26.883,79.5l-8.845-.176.749-8.814A2.945,2.945,0,0,0,17.1,67.592L9.1,63.834l4.269-7.748a2.946,2.946,0,0,0-.352-3.348l-5.787-6.69,7.051-5.341a2.945,2.945,0,0,0,1.04-3.2l-2.565-8.466,8.615-2.011a2.946,2.946,0,0,0,2.253-2.5l1.1-8.777,8.688,1.666a2.945,2.945,0,0,0,3.075-1.369l4.575-7.571,7.259,5.056a2.945,2.945,0,0,0,3.366,0l7.258-5.056,4.575,7.571a2.944,2.944,0,0,0,3.075,1.369l8.688-1.666,1.1,8.777a2.945,2.945,0,0,0,2.253,2.5l8.615,2.011L84.681,37.5a2.945,2.945,0,0,0,1.04,3.2l7.052,5.341-5.787,6.69A2.945,2.945,0,0,0,86.634,56.087Z" transform="translate(-0.001 -1.318)" fill="#e64853"/>
      </g>
    </g>
    <g id="Group_109" data-name="Group 109" transform="translate(21.821 22.881)">
      <g id="Group_108" data-name="Group 108">
        <path id="Path_112" data-name="Path 112" d="M139.9,111.722A28.179,28.179,0,1,0,168.081,139.9,28.211,28.211,0,0,0,139.9,111.722Zm0,50.469A22.289,22.289,0,1,1,162.191,139.9,22.315,22.315,0,0,1,139.9,162.191Z" transform="translate(-111.722 -111.722)" fill="#e64853"/>
      </g>
    </g>
    <g id="Group_111" data-name="Group 111" transform="translate(37.593 41.807)">
      <g id="Group_110" data-name="Group 110">
        <path id="Path_113" data-name="Path 113" d="M216.427,209.485a2.945,2.945,0,0,0-4.165,0l-10.535,10.535-4.226-4.226a2.945,2.945,0,1,0-4.164,4.165l6.309,6.309a2.945,2.945,0,0,0,4.164,0l12.617-12.617A2.945,2.945,0,0,0,216.427,209.485Z" transform="translate(-192.474 -208.622)" fill="#e64853"/>
      </g>
    </g>
  </g>
</svg>
