<svg xmlns="http://www.w3.org/2000/svg" width="18.964" height="35" viewBox="0 0 18.964 35">
  <g id="Group_106" data-name="Group 106" transform="translate(-117.297)">
    <path id="Path_111" data-name="Path 111" d="M126.779,35a.72.72,0,0,1-.279-.055.729.729,0,0,1-.451-.674V19.159l-7.528,6.9a.729.729,0,1,1-.986-1.075L125.7,17.5l-8.166-7.482a.729.729,0,1,1,.986-1.075l7.531,6.9V.73A.729.729,0,0,1,127.3.214l8.75,8.75a.729.729,0,0,1,0,1.031l-.023.022L127.858,17.5l8.166,7.482a.729.729,0,0,1,.045,1.03l-.022.023-8.75,8.75A.729.729,0,0,1,126.779,35Zm.729-15.841V32.511l6.966-6.966Zm0-16.668V15.843l6.966-6.386Z" transform="translate(0 0)" fill="#e64853"/>
    <path id="Path_112" data-name="Path 112" d="M126.779,35a.729.729,0,0,1-.729-.729V19.159l-7.528,6.9a.729.729,0,1,1-.986-1.075L125.7,17.5l-8.166-7.482a.729.729,0,1,1,.986-1.075l7.531,6.9V.73A.729.729,0,0,1,127.3.214l8.75,8.75a.729.729,0,0,1,0,1.031l-.023.022L127.858,17.5l8.166,7.482a.729.729,0,0,1,.045,1.03l-.022.023-8.75,8.75A.729.729,0,0,1,126.779,35Zm.729-15.841V32.511l6.966-6.966Zm0-16.668V15.843l6.966-6.386Z" transform="translate(0 0)" fill="#e64853"/>
  </g>
</svg>
