<svg xmlns="http://www.w3.org/2000/svg" width="60" height="60.318" viewBox="0 0 60 60.318">
  <g id="Group_21" data-name="Group 21" transform="translate(-0.873 -0.75)">
    <path id="Path_25" data-name="Path 25" d="M32.629,8.5l.537,1.435L33.7,8.5a4.473,4.473,0,0,1,2.623-2.622l1.427-.537-1.427-.537a4.475,4.475,0,0,1-2.62-2.623L33.169.75l-.54,1.435a4.475,4.475,0,0,1-2.62,2.623l-1.435.537,1.435.537A4.473,4.473,0,0,1,32.629,8.5Z" transform="translate(8.232 0)" fill="#e64853"/>
    <path id="Path_26" data-name="Path 26" d="M40.083,12.141l.406,1.087.4-1.087a3.389,3.389,0,0,1,1.989-1.989l1.087-.407L42.88,9.338a3.389,3.389,0,0,1-1.989-1.989l-.407-1.087-.406,1.087a3.4,3.4,0,0,1-1.989,1.989L37,9.745l1.088.407A3.4,3.4,0,0,1,40.083,12.141Z" transform="translate(10.736 1.638)" fill="#e64853"/>
    <path id="Path_27" data-name="Path 27" d="M44.767,7.484l.406,1.088.407-1.088A3.4,3.4,0,0,1,47.569,5.5l1.087-.406-1.087-.407A3.389,3.389,0,0,1,45.58,2.694l-.407-1.087-.406,1.087a3.4,3.4,0,0,1-1.989,1.989L41.69,5.09l1.088.406A3.4,3.4,0,0,1,44.767,7.484Z" transform="translate(12.129 0.255)" fill="#e64853"/>
    <path id="Path_28" data-name="Path 28" d="M39.881,44.727v2.7A1.315,1.315,0,0,0,41.2,48.744h5.059a1.315,1.315,0,0,0,1.315-1.315V42.221a8.533,8.533,0,0,1-6.4,2.506Z" transform="translate(11.591 12.323)" fill="#e64853"/>
    <path id="Path_29" data-name="Path 29" d="M2.132,42.162v5.285a1.315,1.315,0,0,0,1.315,1.315H8.506a1.315,1.315,0,0,0,1.315-1.315v-2.7H8.609a8.5,8.5,0,0,1-6.477-2.583Z" transform="translate(0.374 12.306)" fill="#e64853"/>
    <path id="Path_30" data-name="Path 30" d="M2.161,38.347c0,3.728,2.594,5.9,6.439,5.9H52.38c3.84,0,6.439-2.173,6.439-5.9V37.27H2.161Z" transform="translate(0.383 10.852)" fill="#e64853"/>
    <path id="Path_31" data-name="Path 31" d="M59.8,21.933l-3.243-.563a1.167,1.167,0,0,0-1.274.69l-1.009,2.282-.41-.625L51.02,17a6.962,6.962,0,0,0-5.312-4.172,95.7,95.7,0,0,0-14.836-1.083,95.664,95.664,0,0,0-14.834,1.087,6.963,6.963,0,0,0-5.318,4.172l-2.837,6.7-.4.616L6.464,22.054a1.167,1.167,0,0,0-1.274-.69l-3.244.569A1.276,1.276,0,0,0,.873,23.2v.637a1.282,1.282,0,0,0,1.008,1.252L6.322,26.1,4.2,29.343a10.076,10.076,0,0,0-1.65,5.526v8.042H59.2V34.868a10.076,10.076,0,0,0-1.65-5.524l-2.136-3.26,4.449-1a1.282,1.282,0,0,0,1.008-1.252v-.637a1.276,1.276,0,0,0-1.074-1.26ZM12.516,17.768a4.99,4.99,0,0,1,3.828-3.011A93.914,93.914,0,0,1,30.872,13.7,93.914,93.914,0,0,1,45.4,14.757a4.991,4.991,0,0,1,3.825,3.009l2.186,5.155H10.331ZM8.39,36.577A1.924,1.924,0,0,1,6.8,35.118a4.212,4.212,0,0,1-.136-1.343c.105-1.167.472-1.742,1.214-1.742,0,0,5.087.317,5.775.528s3.326,5.228,3.326,5.228Zm32.59,1.946L30.81,39.1l-10.045-.567L18.2,33.1s9.024.786,12.668.786S43.542,33.1,43.542,33.1Zm13.968-3.4a1.924,1.924,0,0,1-1.594,1.459l-8.585,1.212s2.64-5.016,3.327-5.228,5.774-.528,5.774-.528c.743,0,1.109.58,1.214,1.742A4.212,4.212,0,0,1,54.948,35.123Z" transform="translate(0 3.268)" fill="#e64853"/>
  </g>
</svg>
