<svg id="Group_6" data-name="Group 6" xmlns="http://www.w3.org/2000/svg" width="18" height="18" viewBox="0 0 18 18">
  <g id="Group_5" data-name="Group 5">
    <circle id="Ellipse_1" data-name="Ellipse 1" cx="0.527" cy="0.527" r="0.527" transform="translate(8.473 9)" fill="#fff"/>
    <path id="Path_14" data-name="Path 14" d="M9,0a9,9,0,1,0,9,9A9.019,9.019,0,0,0,9,0ZM9,2.145a6.866,6.866,0,0,1,6.774,5.8H13.946a4.146,4.146,0,0,1-3.022-1.277,2.639,2.639,0,0,0-3.846,0A4.146,4.146,0,0,1,4.054,7.945H2.226A6.866,6.866,0,0,1,9,2.145Zm0,8.965a1.582,1.582,0,1,1,1.582-1.582A1.584,1.584,0,0,1,9,11.109Zm-6.384.39a4.164,4.164,0,0,1,1.638-.39,3.167,3.167,0,0,1,3.128,3.638h0a3.153,3.153,0,0,1-.25.849A6.887,6.887,0,0,1,2.616,11.5Zm8.253,4.1a3.145,3.145,0,0,1-.25-.849h0A3.168,3.168,0,0,1,14.5,11.2a7.7,7.7,0,0,1,.886.3A6.887,6.887,0,0,1,10.869,15.6Z" fill="#fff"/>
  </g>
</svg>
