<svg xmlns="http://www.w3.org/2000/svg" width="41.291" height="15" viewBox="0 0 41.291 15">
  <g id="Group_14" data-name="Group 14" transform="translate(0 -163)">
    <g id="XMLID_1_" transform="translate(0 163)">
      <g id="XMLID_3340_" transform="translate(0 0)">
        <g id="XMLID_393_" transform="translate(29.323 6.339)">
          <path id="XMLID_3139_" d="M367.931,250.261a4.331,4.331,0,1,1,4.331-4.331A4.337,4.337,0,0,1,367.931,250.261Zm0-7.863a3.524,3.524,0,1,0,3.524,3.524A3.528,3.528,0,0,0,367.931,242.4Z" transform="translate(-363.6 -241.6)" fill="#e64853"/>
        </g>
        <g id="XMLID_392_" transform="translate(3.177 6.339)">
          <path id="XMLID_3136_" d="M43.731,250.261a4.331,4.331,0,1,1,4.331-4.331A4.337,4.337,0,0,1,43.731,250.261Zm0-7.863a3.528,3.528,0,1,0,3.524,3.532A3.528,3.528,0,0,0,43.731,242.4Z" transform="translate(-39.4 -241.6)" fill="#e64853"/>
        </g>
        <g id="XMLID_386_" transform="translate(5.177 8.339)">
          <path id="XMLID_3133_" d="M66.531,271.061a2.331,2.331,0,1,1,2.331-2.331A2.337,2.337,0,0,1,66.531,271.061Zm0-3.863a1.524,1.524,0,1,0,1.524,1.524A1.528,1.528,0,0,0,66.531,267.2Z" transform="translate(-64.2 -266.4)" fill="#e64853"/>
        </g>
        <g id="XMLID_378_" transform="translate(31.306 8.339)">
          <path id="XMLID_3130_" d="M390.531,271.061a2.331,2.331,0,1,1,2.331-2.331A2.337,2.337,0,0,1,390.531,271.061Zm0-3.863a1.524,1.524,0,1,0,1.524,1.524A1.528,1.528,0,0,0,390.531,267.2Z" transform="translate(-388.2 -266.4)" fill="#e64853"/>
        </g>
        <g id="XMLID_1878_">
          <path id="XMLID_3129_" d="M39.919,175.984H37.073v-.806h2.444v-1.516a.361.361,0,0,1,.032-.161l.839-1.911-1.6-1.2a10.368,10.368,0,0,0-6.185-2.065h-3.4a.377.377,0,0,1-.226-.073L25.4,165.823a11.687,11.687,0,0,0-6.581-2.024H10.379L.806,166.726v.387H1.29a.4.4,0,0,1,.4.4v3.468a.4.4,0,0,1-.4.4H.806v2.2l1.21,1.589H4.081v.806H1.815a.4.4,0,0,1-.323-.161L.081,173.968A.381.381,0,0,1,0,173.726v-2.742a.4.4,0,0,1,.4-.4H.887v-2.661H.4a.4.4,0,0,1-.4-.4v-1.089a.407.407,0,0,1,.282-.387l9.919-3.024a.621.621,0,0,1,.121-.016h8.492a12.492,12.492,0,0,1,7.032,2.161l3.468,2.355H32.6a11.18,11.18,0,0,1,6.669,2.226l1.863,1.4a.4.4,0,0,1,.129.484l-.935,2.129v1.831a.4.4,0,0,1-.4.4Z" transform="translate(0 -163)" fill="#e64853"/>
        </g>
        <g id="XMLID_1946_" transform="translate(24.452 12.177)">
          <path id="XMLID_3128_" d="M303.2,314h5.774v.806H303.2Z" transform="translate(-303.2 -314)" fill="#e64853"/>
        </g>
        <g id="XMLID_1945_" transform="translate(10.927 12.177)">
          <path id="XMLID_3127_" d="M135.5,314h11.911v.806H135.5Z" transform="translate(-135.5 -314)" fill="#e64853"/>
        </g>
        <g id="XMLID_394_" transform="translate(0.887 4.113)">
          <path id="XMLID_3124_" d="M13.153,218.274H11.4a.4.4,0,0,1-.4-.4V214.4a.4.4,0,0,1,.4-.4h1.758a.407.407,0,0,1,.371.242l.847,1.976a.42.42,0,0,1-.016.355l-.847,1.492A.434.434,0,0,1,13.153,218.274Zm-1.347-.806h1.113l.629-1.113-.653-1.548H11.806Z" transform="translate(-11 -214)" fill="#e64853"/>
        </g>
        <g id="XMLID_437_" transform="translate(6.74 1.137)">
          <path id="XMLID_3123_" d="M103.535,181.124H97.487a.178.178,0,0,1-.065-.008l-8.1-1.25.121-.8,8.081,1.25h4.758l-.331-.234a11.665,11.665,0,0,0-6.815-2.186H87.947l-2.113.621,2,.306-.121.8-3.79-.581a.4.4,0,0,1-.339-.371.392.392,0,0,1,.29-.411l3.911-1.145a.545.545,0,0,1,.113-.016H95.14a12.468,12.468,0,0,1,7.282,2.331l1.355.968a.41.41,0,0,1,.153.452A.429.429,0,0,1,103.535,181.124Z" transform="translate(-83.582 -177.1)" fill="#e64853"/>
        </g>
        <g id="XMLID_436_" transform="translate(13.694 1.129)">
          <path id="XMLID_3120_" d="M171.848,180.282a.178.178,0,0,1-.065-.008l-1.645-.25a.406.406,0,0,1-.339-.4V177.4a.4.4,0,0,1,.4-.4h1.645a.4.4,0,0,1,.4.4v2.468a.4.4,0,0,1-.137.306A.409.409,0,0,1,171.848,180.282Zm-1.242-1.008.839.129v-1.6h-.839Z" transform="translate(-169.8 -177)" fill="#e64853"/>
        </g>
        <g id="XMLID_438_" transform="translate(12.744 5.158)">
          <path id="XMLID_3119_" d="M174.01,232.87l-13.113-.782a.415.415,0,0,1-.29-.153l-2.492-3.145a.384.384,0,0,1-.073-.347.427.427,0,0,1,.226-.274l2.6-1.169a.43.43,0,0,1,.226-.032l12.774,1.935-.121.8-12.661-1.911-2.016.9,2.056,2.6,12.935.774Z" transform="translate(-158.029 -226.964)" fill="#e64853"/>
        </g>
        <g id="XMLID_439_" transform="translate(38.387 8.065)">
          <path id="XMLID_3118_" d="M476,263h2.5v.806H476Z" transform="translate(-476 -263)" fill="#e64853"/>
        </g>
      </g>
    </g>
  </g>
</svg>
