<svg xmlns="http://www.w3.org/2000/svg" width="70" height="62.658" viewBox="0 0 70 62.658">
  <g id="Group_16" data-name="Group 16" transform="translate(0 -26.854)">
    <g id="Group_15" data-name="Group 15" transform="translate(0 26.854)">
      <path id="Path_18" data-name="Path 18" d="M12.595,246.868A12.609,12.609,0,0,0,0,259.463c0,3.511,1.92,7.751,5.706,12.6a57.746,57.746,0,0,0,5.489,6.077l1.4,1.307,1.4-1.307a57.746,57.746,0,0,0,5.489-6.077c3.786-4.852,5.706-9.093,5.706-12.6a12.609,12.609,0,0,0-12.595-12.595Zm.006,26.885a55.329,55.329,0,0,1-3.661-4.209C5.774,265.487,4.1,262,4.1,259.463a8.494,8.494,0,0,1,16.987,0C21.088,263.989,15.832,270.4,12.6,273.753Z" transform="translate(0 -216.792)" fill="#e64853"/>
      <path id="Path_19" data-name="Path 19" d="M66.4,309.193a4.075,4.075,0,1,0,4.075,4.075A4.079,4.079,0,0,0,66.4,309.193Z" transform="translate(-53.805 -270.597)" fill="#e64853"/>
      <path id="Path_20" data-name="Path 20" d="M340.4,26.854A12.609,12.609,0,0,0,327.8,39.449c0,3.511,1.92,7.751,5.706,12.6A57.743,57.743,0,0,0,339,58.129l1.4,1.307,1.4-1.307a57.721,57.721,0,0,0,5.489-6.077c3.786-4.852,5.706-9.093,5.706-12.6A12.609,12.609,0,0,0,340.4,26.854Zm0,26.891c-3.231-3.353-8.493-9.768-8.493-14.3a8.494,8.494,0,0,1,16.987,0C348.889,43.977,343.626,50.392,340.4,53.745Z" transform="translate(-282.99 -26.854)" fill="#e64853"/>
      <path id="Path_21" data-name="Path 21" d="M394.2,89.18a4.075,4.075,0,1,0,4.075,4.075A4.079,4.079,0,0,0,394.2,89.18Z" transform="translate(-336.795 -80.66)" fill="#e64853"/>
      <path id="Path_22" data-name="Path 22" d="M181.224,244.713H169.756a5.468,5.468,0,1,1,0-10.937h10.785v-4.1H169.756a9.57,9.57,0,1,0,0,19.139h11.469a5.468,5.468,0,1,1,0,10.937H152.135v4.1h29.089a9.57,9.57,0,0,0,0-19.139Z" transform="translate(-131.338 -201.949)" fill="#e64853"/>
    </g>
  </g>
</svg>
