<svg xmlns="http://www.w3.org/2000/svg" width="35" height="35.004" viewBox="0 0 35 35.004">
  <g id="Group_89" data-name="Group 89" transform="translate(-0.938 -0.97)">
    <path id="Path_86" data-name="Path 86" d="M34.243,2.676A5.794,5.794,0,0,0,24.46,5.6H16.941a1.164,1.164,0,0,0-.824.342L1.825,20.264a3.05,3.05,0,0,0,0,4.3l10.5,10.519a3.038,3.038,0,0,0,4.3,0L30.907,20.76a1.164,1.164,0,0,0,.34-.822V12.5a5.758,5.758,0,0,0,3-1.6,5.837,5.837,0,0,0,0-8.227ZM14.977,33.438a.708.708,0,0,1-1,0L3.479,22.92a.72.72,0,0,1,0-1.012L17.429,7.933h11.5v2.125a3.44,3.44,0,0,1-1.254-.8A1.165,1.165,0,1,0,26.02,10.9a5.75,5.75,0,0,0,2.9,1.574v6.984ZM32.594,9.262a3.454,3.454,0,0,1-1.341.823V6.769A1.164,1.164,0,0,0,30.088,5.6H26.861a3.484,3.484,0,1,1,5.733,3.658Z" transform="translate(0 0)" fill="#e64853"/>
    <path id="Path_87" data-name="Path 87" d="M20.868,14.811l.823-.823a1.164,1.164,0,1,0-1.647-1.647l-.822.823a3.494,3.494,0,1,0-4.941,4.941l1.647,1.645A1.165,1.165,0,1,1,14.282,21.4l-3.293-3.293a1.164,1.164,0,1,0-1.647,1.647L10.989,21.4l-.824.823a1.164,1.164,0,1,0,1.647,1.647l.823-.822a3.494,3.494,0,0,0,4.942-4.941l-1.648-1.647a1.165,1.165,0,1,1,1.647-1.648l3.293,3.294a1.164,1.164,0,1,0,1.647-1.647Z" transform="translate(1.326 1.814)" fill="#e64853"/>
  </g>
</svg>
