<svg xmlns="http://www.w3.org/2000/svg" width="50" height="35.484" viewBox="0 0 50 35.484">
  <g id="Group_22" data-name="Group 22" transform="translate(0 0)">
    <path id="Path_32" data-name="Path 32" d="M46.371,65.6a5.747,5.747,0,1,1,5.8-5.747A5.781,5.781,0,0,1,46.371,65.6Zm0-9.881a4.134,4.134,0,1,0,4.187,4.134A4.166,4.166,0,0,0,46.371,55.718Zm0,0" transform="translate(-36.481 -48.652)" fill="#e64853"/>
    <path id="Path_33" data-name="Path 33" d="M12.224,196.394H2.108A2.1,2.1,0,0,1,0,194.3v-2.638A9.91,9.91,0,0,1,15.793,183.8a.807.807,0,0,1-.958,1.3,8.3,8.3,0,0,0-13.223,6.56V194.3a.489.489,0,0,0,.495.482H12.224a.806.806,0,1,1,0,1.613Zm0,0" transform="translate(0 -163.534)" fill="#e64853"/>
    <path id="Path_34" data-name="Path 34" d="M347.21,190.342H337.093a.806.806,0,0,1,0-1.613H347.21a.489.489,0,0,0,.495-.481V185.61a8.239,8.239,0,0,0-8.278-8.181,8.352,8.352,0,0,0-5.24,1.849.806.806,0,1,1-1.014-1.254,9.971,9.971,0,0,1,6.255-2.208,9.853,9.853,0,0,1,9.89,9.794v2.638a2.1,2.1,0,0,1-2.108,2.094Zm0,0" transform="translate(-299.318 -158.093)" fill="#e64853"/>
    <path id="Path_35" data-name="Path 35" d="M346.152,61.646a5.747,5.747,0,1,1,5.8-5.747A5.78,5.78,0,0,1,346.152,61.646Zm0-9.881A4.134,4.134,0,1,0,350.34,55.9,4.166,4.166,0,0,0,346.152,51.765Zm0,0" transform="translate(-306.042 -45.097)" fill="#e64853"/>
    <path id="Path_36" data-name="Path 36" d="M137.79,175.607H115.9a2.63,2.63,0,0,1-2.637-2.618v-3.71a13.583,13.583,0,0,1,27.165,0v3.71a2.63,2.63,0,0,1-2.637,2.618Zm-10.945-18.162a11.916,11.916,0,0,0-11.97,11.834v3.71a1.016,1.016,0,0,0,1.024,1h21.89a1.016,1.016,0,0,0,1.024-1v-3.71a11.915,11.915,0,0,0-11.969-11.834Zm0,0" transform="translate(-101.844 -140.123)" fill="#e64853"/>
    <path id="Path_37" data-name="Path 37" d="M178.735,14.766a7.427,7.427,0,0,1-7.453-7.384,7.454,7.454,0,0,1,14.907,0,7.427,7.427,0,0,1-7.454,7.383Zm0-13.154a5.812,5.812,0,0,0-5.84,5.77,5.841,5.841,0,0,0,11.681,0,5.813,5.813,0,0,0-5.841-5.77Zm0,0" transform="translate(-154.015)" fill="#e64853"/>
  </g>
</svg>
