<svg xmlns="http://www.w3.org/2000/svg" width="100" height="109.185" viewBox="0 0 100 109.185">
  <g id="Group_108" data-name="Group 108" transform="translate(-17.756)">
    <g id="Group_107" data-name="Group 107" transform="translate(17.756)">
      <g id="Group_106" data-name="Group 106">
        <path id="Path_111" data-name="Path 111" d="M107.216,45.134h-.27V38.512a38.512,38.512,0,1,0-77.025,0v6.621H28.3c-5.946,0-10.54,5.27-10.54,11.351V73.376a10.675,10.675,0,0,0,10.4,10.943l.139,0h10a2.567,2.567,0,0,0,2.444-2.685q0-.076-.012-.153V48.377c0-1.621-.946-3.243-2.432-3.243H35.327V38.512a33.107,33.107,0,1,1,66.214,0v6.621H98.568c-1.486,0-2.432,1.621-2.432,3.243V81.484a2.567,2.567,0,0,0,2.28,2.826q.076.008.153.012h3.108l-.27.405A21.35,21.35,0,0,1,84.244,93.24a13.378,13.378,0,0,0-26.486,2.568,13.513,13.513,0,0,0,13.513,13.378A13.918,13.918,0,0,0,81,105a11.892,11.892,0,0,0,3.243-6.486A26.755,26.755,0,0,0,105.73,87.835l2.568-3.784c5.811-.405,9.459-4.054,9.459-9.324V57.835C117.757,52.025,113.433,45.134,107.216,45.134ZM35.327,78.916H28.3a5.27,5.27,0,0,1-5.14-5.4c0-.048,0-.1.005-.144V56.485c0-3.108,2.162-5.946,5.135-5.946h7.027Zm41.755,22.3a7.973,7.973,0,0,1-5.811,2.568,8.243,8.243,0,0,1-8.108-7.973A7.973,7.973,0,1,1,79.109,95.8v.006A7.162,7.162,0,0,1,77.082,101.213Zm35.269-26.486c0,3.648-3.513,4.189-5.135,4.189h-5.676V50.539h5.676c2.973,0,5.135,4.189,5.135,7.3Z" transform="translate(-17.756)" fill="#e64853"/>
      </g>
    </g>
  </g>
</svg>
