<svg xmlns="http://www.w3.org/2000/svg" width="40.002" height="40" viewBox="0 0 40.002 40">
  <g id="Group_24" data-name="Group 24" transform="translate(0 -0.011)">
    <g id="Group_23" data-name="Group 23" transform="translate(0 0.011)">
      <path id="Path_38" data-name="Path 38" d="M39.768,16.75a3.52,3.52,0,0,0-.8-3.744L27,1.039a3.52,3.52,0,0,0-4.972,0L8.579,14.493H3.516A3.52,3.52,0,0,0,0,18.009V36.5a3.52,3.52,0,0,0,3.516,3.516h32.97A3.52,3.52,0,0,0,40,36.5V18.009A3.5,3.5,0,0,0,39.768,16.75Zm-2.545-2.179a3.514,3.514,0,0,0-.736-.078H33.947l1.6-1.6Zm-3.334-3.334-3.256,3.256H27.317L32.231,9.58ZM23.69,2.7a1.173,1.173,0,0,1,1.657,0l5.226,5.226L24,14.493H11.894ZM37.658,36.5a1.173,1.173,0,0,1-1.172,1.172H3.516A1.173,1.173,0,0,1,2.344,36.5V18.009a1.173,1.173,0,0,1,1.172-1.172h32.97a1.173,1.173,0,0,1,1.172,1.172Z" transform="translate(0 -0.011)" fill="#e64853"/>
      <path id="Path_39" data-name="Path 39" d="M59,406.585h5.461v2.344H59Z" transform="translate(-54.39 -374.82)" fill="#e64853"/>
      <path id="Path_40" data-name="Path 40" d="M167.032,406.585h5.461v2.344h-5.461Z" transform="translate(-153.982 -374.82)" fill="#e64853"/>
      <path id="Path_41" data-name="Path 41" d="M275.065,406.585h5.461v2.344h-5.461Z" transform="translate(-253.575 -374.82)" fill="#e64853"/>
      <path id="Path_42" data-name="Path 42" d="M383.1,406.585h5.461v2.344H383.1Z" transform="translate(-353.166 -374.82)" fill="#e64853"/>
      <path id="Path_43" data-name="Path 43" d="M65.959,255.372H61.953A1.955,1.955,0,0,0,60,257.325v3.125a1.955,1.955,0,0,0,1.953,1.953h4.005a1.955,1.955,0,0,0,1.953-1.953v-3.125A1.955,1.955,0,0,0,65.959,255.372Zm-.391,4.688H62.344v-2.344h3.224Z" transform="translate(-55.312 -235.421)" fill="#e64853"/>
    </g>
  </g>
</svg>
