<svg id="Group_13" data-name="Group 13" xmlns="http://www.w3.org/2000/svg" width="14" height="14" viewBox="0 0 14 14">
  <g id="Group_12" data-name="Group 12">
    <path id="Path_17" data-name="Path 17" d="M12.2,1.094H10.938V.438a.438.438,0,0,0-.875,0v.656H3.938V.438a.438.438,0,0,0-.875,0v.656H1.8A1.807,1.807,0,0,0,0,2.9v9.3A1.807,1.807,0,0,0,1.8,14H12.2A1.807,1.807,0,0,0,14,12.2V2.9A1.807,1.807,0,0,0,12.2,1.094ZM1.8,1.969H3.063v.438a.438.438,0,0,0,.875,0V1.969h6.125v.438a.438.438,0,0,0,.875,0V1.969H12.2a.931.931,0,0,1,.93.93V3.938H.875V2.9A.931.931,0,0,1,1.8,1.969ZM12.2,13.125H1.8a.931.931,0,0,1-.93-.93V4.813h12.25V12.2A.931.931,0,0,1,12.2,13.125Z" fill="#555"/>
  </g>
</svg>
