<svg id="Group_46" data-name="Group 46" xmlns="http://www.w3.org/2000/svg" width="21" height="14" viewBox="0 0 21 14">
  <g id="Group_45" data-name="Group 45">
    <path id="Path_64" data-name="Path 64" d="M19.923,85.333H1.077A1.08,1.08,0,0,0,0,86.41V98.256a1.08,1.08,0,0,0,1.077,1.077H19.923A1.08,1.08,0,0,0,21,98.256V86.41A1.08,1.08,0,0,0,19.923,85.333Zm-.4.808-8.4,6.3a1.126,1.126,0,0,1-1.239,0l-8.4-6.3Zm-4.487,6.716,4.577,5.654c0,.006.01.01.015.015H1.376c0-.005.01-.009.015-.015l4.577-5.654a.4.4,0,0,0-.628-.508l-4.532,5.6v-11.3L9.4,93.087a1.928,1.928,0,0,0,2.208,0l8.588-6.441v11.3l-4.532-5.6a.4.4,0,0,0-.628.508Z" transform="translate(0 -85.333)" fill="#555"/>
  </g>
</svg>
