<svg xmlns="http://www.w3.org/2000/svg" width="14.009" height="14" viewBox="0 0 14.009 14">
  <g id="Group_106" data-name="Group 106" transform="translate(-2.986 -3.007)">
    <path id="Path_111" data-name="Path 111" d="M16.959,13.416a1.145,1.145,0,0,0-.582-.724L13.39,11.144a1.137,1.137,0,0,0-1.449.331l-.483.662a.174.174,0,0,1-.225.051A8.766,8.766,0,0,1,9.3,10.7a8.769,8.769,0,0,1-1.49-1.932.174.174,0,0,1,.051-.225l.659-.483a1.137,1.137,0,0,0,.331-1.449L7.314,3.624A1.142,1.142,0,0,0,5.667,3.2L3.791,4.455a1.806,1.806,0,0,0-.8,1.616A9.09,9.09,0,0,0,3.2,7.657a12.959,12.959,0,0,0,3.446,5.7,12.861,12.861,0,0,0,5.7,3.439,9.1,9.1,0,0,0,1.587.215h.121a1.806,1.806,0,0,0,1.492-.795L16.8,14.336a1.142,1.142,0,0,0,.162-.92Zm-.966.382L14.75,15.677a.845.845,0,0,1-.753.369,8.348,8.348,0,0,1-1.408-.186,11.914,11.914,0,0,1-5.252-3.195A12.015,12.015,0,0,1,4.143,7.413,8.341,8.341,0,0,1,3.955,6a.838.838,0,0,1,.369-.751L6.2,4a.171.171,0,0,1,.1-.029h.046a.174.174,0,0,1,.111.089L8,7.051a.176.176,0,0,1-.051.222l-.659.483a1.14,1.14,0,0,0-.309,1.48,9.79,9.79,0,0,0,1.642,2.128,9.785,9.785,0,0,0,2.128,1.642,1.14,1.14,0,0,0,1.48-.309l.483-.662a.176.176,0,0,1,.222-.051l2.987,1.546a.176.176,0,0,1,.065.254Z" fill="#555"/>
  </g>
</svg>
