<svg xmlns="http://www.w3.org/2000/svg" width="11.843" height="14" viewBox="0 0 11.843 14">
  <g id="Group_11" data-name="Group 11" transform="translate(-39.451)">
    <g id="Group_8" data-name="Group 8" transform="translate(39.451)">
      <g id="Group_7" data-name="Group 7" transform="translate(0)">
        <path id="Path_15" data-name="Path 15" d="M49.559,1.734A5.921,5.921,0,0,0,39.451,5.921c0,3.2,3.025,5.861,4.651,7.291.226.2.421.37.576.515a1.02,1.02,0,0,0,1.389,0c.155-.145.35-.317.576-.515,1.625-1.43,4.651-4.091,4.651-7.291A5.883,5.883,0,0,0,49.559,1.734ZM46.1,12.6c-.231.2-.43.378-.594.532a.2.2,0,0,1-.269,0c-.164-.154-.364-.329-.594-.532-1.528-1.344-4.372-3.846-4.372-6.675a5.1,5.1,0,0,1,10.2,0C50.473,8.75,47.629,11.252,46.1,12.6Z" transform="translate(-39.451 0)" fill="#555"/>
      </g>
    </g>
    <g id="Group_10" data-name="Group 10" transform="translate(42.763 3.088)">
      <g id="Group_9" data-name="Group 9" transform="translate(0)">
        <path id="Path_16" data-name="Path 16" d="M163.179,112.938a2.609,2.609,0,1,0,2.609,2.609A2.612,2.612,0,0,0,163.179,112.938Zm0,4.4a1.789,1.789,0,1,1,1.789-1.789A1.791,1.791,0,0,1,163.179,117.337Z" transform="translate(-160.57 -112.938)" fill="#555"/>
      </g>
    </g>
  </g>
</svg>
