<svg xmlns="http://www.w3.org/2000/svg" width="30" height="45" viewBox="0 0 30 45">
  <g id="Group_38" data-name="Group 38" transform="translate(-85.333)">
    <g id="Group_35" data-name="Group 35" transform="translate(85.333)">
      <g id="Group_34" data-name="Group 34">
        <path id="Path_55" data-name="Path 55" d="M111.583,18.75h-8.437V14.442a7.5,7.5,0,1,0-5.625,0V18.75H89.083a3.754,3.754,0,0,0-3.75,3.75V41.25A3.754,3.754,0,0,0,89.083,45h22.5a3.754,3.754,0,0,0,3.75-3.75V22.5A3.754,3.754,0,0,0,111.583,18.75ZM94.708,7.5a5.625,5.625,0,1,1,5.625,5.625A5.631,5.631,0,0,1,94.708,7.5Zm6.563,7.405V29.063a.938.938,0,0,1-1.875,0V14.905a4.686,4.686,0,0,0,1.875,0ZM97.693,30h0a2.8,2.8,0,0,0,5.28,0H106.9a.937.937,0,0,0,.938-.938v-3.75a.938.938,0,0,1,1.875,0V38.437a.938.938,0,1,1-1.875,0V33.75a.937.937,0,0,0-.938-.938h-4.687a.937.937,0,0,0-.938.938v4.687a.938.938,0,1,1-1.875,0V33.75a.937.937,0,0,0-.938-.938H93.771a.937.937,0,0,0-.938.938v4.687a.938.938,0,1,1-1.875,0V25.313a.938.938,0,0,1,1.875,0v3.75a.937.937,0,0,0,.938.938h3.923Zm15.765,11.25a1.877,1.877,0,0,1-1.875,1.875h-22.5a1.877,1.877,0,0,1-1.875-1.875V22.5a1.877,1.877,0,0,1,1.875-1.875h8.438v7.5H94.708V25.313a2.813,2.813,0,0,0-5.625,0V38.437a2.813,2.813,0,0,0,5.625,0v-3.75h2.813v3.75a2.813,2.813,0,0,0,5.625,0v-3.75h2.813v3.75a2.813,2.813,0,0,0,5.625,0V25.313a2.813,2.813,0,0,0-5.625,0v2.813h-2.812v-7.5h8.438a1.877,1.877,0,0,1,1.875,1.875Z" transform="translate(-85.333)" fill="#e64853"/>
      </g>
    </g>
    <g id="Group_37" data-name="Group 37" transform="translate(96.583 3.75)">
      <g id="Group_36" data-name="Group 36">
        <path id="Path_56" data-name="Path 56" d="M217.083,42.666a3.754,3.754,0,0,0-3.75,3.75.938.938,0,1,0,1.875,0,1.877,1.877,0,0,1,1.875-1.875.938.938,0,1,0,0-1.875Z" transform="translate(-213.333 -42.666)" fill="#e64853"/>
      </g>
    </g>
  </g>
</svg>
