<svg xmlns="http://www.w3.org/2000/svg" xmlns:xlink="http://www.w3.org/1999/xlink" width="200" height="60" viewBox="0 0 200 60">
  <defs>
    <linearGradient id="linear-gradient" x1="-0.423" y1="0.75" x2="0.529" y2="0.25" gradientUnits="objectBoundingBox">
      <stop offset="0" stop-color="#00e2ff"/>
      <stop offset="1" stop-color="#00c5ff"/>
    </linearGradient>
  </defs>
  <g id="Google_Play_Store" data-name="Google Play Store" transform="translate(-975 -6801)">
    <rect id="Rectangle_22" data-name="Rectangle 22" width="200" height="60" rx="10" transform="translate(975 6801)" fill="#fff"/>
    <text id="Available_on" data-name="Available on" transform="translate(1027 6813)" fill="#555" font-size="12" font-family="Nunito-Regular, Nunito"><tspan x="0" y="12">Available on</tspan></text>
    <text id="Google_Play" data-name="Google Play" transform="translate(1027 6833)" fill="#e64853" font-size="16" font-family="Oxanium-Bold, Oxanium" font-weight="700"><tspan x="0" y="13">Google Play</tspan></text>
    <g id="Group_56" data-name="Group 56" transform="translate(975.37 6806)">
      <g id="_x34_2.Google_PLay" transform="translate(14.63 10)">
        <path id="Path_69" data-name="Path 69" d="M64.8,39.111l-5.08-2.934-5.2,5.2,5.2,5.2,5.1-2.944a2.641,2.641,0,0,0-.017-4.524Z" transform="translate(-39.562 -26.361)" fill="#ffce00"/>
        <path id="Path_70" data-name="Path 70" d="M29.589,26.265,15.422,12a2.674,2.674,0,0,0-.792,1.9V38.59a2.675,2.675,0,0,0,.792,1.9Z" transform="translate(-14.63 -11.247)" fill="url(#linear-gradient)"/>
        <path id="Path_71" data-name="Path 71" d="M30.909,25.017l5.2-5.2.008-.008L29.15,15.8l-9.187-5.4a2.606,2.606,0,0,0-2.675-.053,3.97,3.97,0,0,0-.546.4Z" transform="translate(-15.95 -10)" fill="#00f076"/>
        <path id="Path_72" data-name="Path 72" d="M16.742,64.273a3.97,3.97,0,0,0,.546.4,2.732,2.732,0,0,0,1.3.352,2.682,2.682,0,0,0,1.355-.387l9.2-5.373,6.969-4.012-.008-.008-5.2-5.2Z" transform="translate(-15.95 -35.029)" fill="#f63448"/>
      </g>
    </g>
  </g>
</svg>
