<svg xmlns="http://www.w3.org/2000/svg" width="39.551" height="45" viewBox="0 0 39.551 45">
  <g id="Group_107" data-name="Group 107" transform="translate(-31)">
    <g id="Group_106" data-name="Group 106" transform="translate(31 0)">
      <path id="Path_111" data-name="Path 111" d="M98.91,64.955a3.955,3.955,0,1,0-3.955,3.955A3.96,3.96,0,0,0,98.91,64.955Zm-5.273,0a1.318,1.318,0,1,1,1.318,1.318A1.32,1.32,0,0,1,93.637,64.955Z" transform="translate(-85.727 -55.639)" fill="#e64853"/>
      <path id="Path_112" data-name="Path 112" d="M68.479,27.877a7.894,7.894,0,0,0-9.04,0,5.751,5.751,0,0,0-.773.7L46.747,24.6a4.269,4.269,0,0,0,.074-.783,5.173,5.173,0,0,0-3.247-4.552q.366-.373.745-.75c2.3-2.3,4.917-4.917,5.136-9.131l0-.069a9.3,9.3,0,0,0-2.7-6.556,9.093,9.093,0,0,0-13.052,0A9.3,9.3,0,0,0,31,9.316l0,.069c.22,4.215,2.832,6.827,5.136,9.131q.379.379.745.75a5.173,5.173,0,0,0-3.247,4.552,4.863,4.863,0,0,0,2.072,3.851,7.894,7.894,0,0,0,9.04,0,5.752,5.752,0,0,0,.773-.7l11.92,3.973a4.269,4.269,0,0,0-.074.783,4.317,4.317,0,0,0,.207,1.314L50.4,36.186c-.12-.107-.245-.211-.377-.31a7.894,7.894,0,0,0-9.04,0,4.615,4.615,0,0,0,0,7.7,7.894,7.894,0,0,0,9.04,0,4.863,4.863,0,0,0,2.072-3.851,4.316,4.316,0,0,0-.207-1.314l7.175-3.143c.12.107.245.211.377.31a7.894,7.894,0,0,0,9.04,0,4.615,4.615,0,0,0,0-7.7ZM33.637,9.282a6.592,6.592,0,1,1,13.183,0c-.18,3.183-2.213,5.217-4.366,7.369-.752.752-1.52,1.52-2.226,2.353-.706-.833-1.474-1.6-2.226-2.353-2.152-2.152-4.186-4.186-4.366-7.369Zm6.592,17.173c-2.144,0-3.955-1.207-3.955-2.637,0-1.061,1.026-2.036,2.478-2.44.355.472.435.627,1.477,2.18,1.062-1.582,1.124-1.709,1.477-2.18,1.453.4,2.478,1.378,2.478,2.44C44.184,25.248,42.372,26.455,40.229,26.455ZM45.5,42.363c-2.144,0-3.955-1.207-3.955-2.637S43.358,37.09,45.5,37.09s3.955,1.207,3.955,2.637S47.646,42.363,45.5,42.363Zm18.457-8c-2.144,0-3.955-1.207-3.955-2.637s1.811-2.637,3.955-2.637,3.955,1.207,3.955,2.637S66.1,34.365,63.959,34.365Z" transform="translate(-31 0)" fill="#e64853"/>
    </g>
  </g>
</svg>
