<svg xmlns="http://www.w3.org/2000/svg" width="45" height="45" viewBox="0 0 45 45">
  <g id="Group_106" data-name="Group 106" transform="translate(0.001 0.002)">
    <g id="Page-1" transform="translate(-0.002 -0.002)">
      <g id="_098---Heated-Seat" data-name="098---Heated-Seat">
        <path id="Shape" d="M40.942,32.273c-.136,0-.278.008-.428.017l-1.589.13a11.876,11.876,0,0,0-.482-1.33,7.483,7.483,0,0,1-.694-3.34,7.491,7.491,0,0,1,.693-3.34,8.827,8.827,0,0,0,.8-3.612l.975.975a.75.75,0,0,0,1.06-1.06l-2.25-2.25a.75.75,0,0,0-1.06,0l-2.25,2.25a.75.75,0,0,0,1.06,1.06l.961-.961a7.451,7.451,0,0,1-.685,3.019,8.863,8.863,0,0,0-.805,3.919,8.858,8.858,0,0,0,.807,3.912c.118.287.234.571.337.881l-5.824.475a9.75,9.75,0,0,0-.627-1.93,7.483,7.483,0,0,1-.692-3.338,7.491,7.491,0,0,1,.693-3.34,8.827,8.827,0,0,0,.8-3.612l.975.975a.75.75,0,0,0,1.06-1.06l-2.25-2.25a.75.75,0,0,0-1.06,0l-2.25,2.25a.75.75,0,0,0,1.06,1.06l.961-.961a7.451,7.451,0,0,1-.685,3.019,8.863,8.863,0,0,0-.8,3.919,8.858,8.858,0,0,0,.807,3.912,8.916,8.916,0,0,1,.5,1.48l-5.893.48a8.93,8.93,0,0,0-.725-2.533,7.483,7.483,0,0,1-.692-3.338,7.491,7.491,0,0,1,.693-3.34,8.827,8.827,0,0,0,.8-3.612l.975.975a.75.75,0,0,0,1.06-1.06l-2.25-2.25a.75.75,0,0,0-1.06,0l-2.25,2.25a.75.75,0,0,0,1.06,1.06l.961-.961a7.451,7.451,0,0,1-.685,3.019,8.863,8.863,0,0,0-.8,3.919,8.858,8.858,0,0,0,.807,3.912,7.734,7.734,0,0,1,.612,2.082l-3.767.307a3.714,3.714,0,0,0-2.475-2.681L13.051,15.434a3,3,0,0,0-3.43-2.306l-.446-2.191a2.954,2.954,0,0,0,1.2-1.036,2.911,2.911,0,0,0,.419-2.215l-.92-4.33A3,3,0,0,0,6.329,1.062l-2.937.6A2.974,2.974,0,0,0,1.483,2.949a2.906,2.906,0,0,0-.419,2.217l1.221,5.775a1.489,1.489,0,0,0,.993,1.1l.495,2.416a1.505,1.505,0,0,0-.362.375A1.467,1.467,0,0,0,3.2,15.946l4.95,23.938A2.99,2.99,0,0,0,10,42.038v1.709A2.25,2.25,0,0,0,12.249,46h27a2.25,2.25,0,0,0,2.25-2.25V42.191A5.1,5.1,0,0,0,46,37.355a4.916,4.916,0,0,0-1.425-3.562,5.049,5.049,0,0,0-3.631-1.52ZM37.7,34.024A9.74,9.74,0,0,1,37.75,35a7.472,7.472,0,0,1-.693,3.336,9.05,9.05,0,0,0-.707,2.413H30.366a7.965,7.965,0,0,1,.576-1.836A8.85,8.85,0,0,0,31.748,35c0-.175-.007-.332-.013-.492ZM30.248,35a7.472,7.472,0,0,1-.693,3.336,9.05,9.05,0,0,0-.706,2.41H22.866a8,8,0,0,1,.576-1.836,8.842,8.842,0,0,0,.807-3.789l5.994-.489c0,.118.006.236.006.367ZM17.5,34.864a2.25,2.25,0,1,1-2.25-2.2,2.227,2.227,0,0,1,2.25,2.2ZM5.213,14.017l-.425-2.076,2.938-.6.421,2.076ZM2.531,4.856a1.425,1.425,0,0,1,.2-1.081,1.491,1.491,0,0,1,.957-.643l2.937-.6A1.5,1.5,0,0,1,8.406,3.666L9.324,8a1.425,1.425,0,0,1-.205,1.081,1.492,1.492,0,0,1-.956.643l-4.409.9ZM9.616,39.579,4.666,15.663l.1-.02h.019l.009,0,4.38-.9h.012l.012,0,.613-.126a1.5,1.5,0,0,1,1.777,1.136L14.857,31.21a3.692,3.692,0,1,0,4.075,4.35l3.814-.311a7.455,7.455,0,0,1-.687,3.094,9.075,9.075,0,0,0-.71,2.405H11.086a1.482,1.482,0,0,1-1.47-1.171ZM40,43.748a.75.75,0,0,1-.75.75h-27a.75.75,0,0,1-.75-.75v-1.5h9.75a.75.75,0,1,0,1.5,0h6a.75.75,0,1,0,1.5,0h6a.75.75,0,1,0,1.5,0H40Zm.757-3H37.867a7.964,7.964,0,0,1,.576-1.836A8.85,8.85,0,0,0,39.248,35c0-.409-.021-.767-.053-1.1l1.425-.116A3.691,3.691,0,0,1,43.5,34.843a3.43,3.43,0,0,1,.994,2.483,3.643,3.643,0,0,1-3.743,3.421Z" transform="translate(-0.998 -0.998)" fill="#e64853"/>
      </g>
    </g>
  </g>
</svg>
