<svg xmlns="http://www.w3.org/2000/svg" width="41.617" height="35" viewBox="0 0 41.617 35">
  <g id="Group_105" data-name="Group 105" transform="translate(-2.41 -7.909)">
    <path id="Path_106" data-name="Path 106" d="M42.384,49.875H37.77a.6.6,0,0,1,0-1.2h4.614a.445.445,0,0,0,.439-.445V43.083a.451.451,0,0,0-.439-.457H39.076a.6.6,0,0,1-.487-.241l-4.921-6.617a.981.981,0,0,0-.758-.373h-15.3a.963.963,0,0,0-.758.373l-5.065,6.605a.6.6,0,0,1-.481.235H8a4.391,4.391,0,0,0-4.385,4.385v1.678H9.719a.6.6,0,1,1,0,1.2H3.012a.6.6,0,0,1-.6-.6v-2.28A5.6,5.6,0,0,1,8,41.4h3.008l4.885-6.413a2.19,2.19,0,0,1,1.714-.842h15.3A2.172,2.172,0,0,1,34.648,35L39.395,41.4H42.4a1.654,1.654,0,0,1,1.624,1.678v5.161a1.648,1.648,0,0,1-1.642,1.63Z" transform="translate(0 -10.455)" fill="#e64853"/>
    <path id="Path_107" data-name="Path 107" d="M39.86,59.493H25.742a.6.6,0,1,1,0-1.2H39.86a.6.6,0,0,1,0,1.2Z" transform="translate(-9.056 -20.073)" fill="#e64853"/>
    <path id="Path_108" data-name="Path 108" d="M17.645,60.679a4.085,4.085,0,1,1,4.085-4.085,4.085,4.085,0,0,1-4.085,4.085Zm0-6.966a2.882,2.882,0,1,0,2.882,2.882A2.882,2.882,0,0,0,17.645,53.713Z" transform="translate(-4.442 -17.77)" fill="#e64853"/>
    <path id="Path_109" data-name="Path 109" d="M52.695,60.679a4.085,4.085,0,1,1,4.085-4.085,4.085,4.085,0,0,1-4.085,4.085Zm0-6.966a2.882,2.882,0,1,0,2.882,2.882A2.882,2.882,0,0,0,52.695,53.713Z" transform="translate(-18.407 -17.77)" fill="#e64853"/>
    <path id="Path_110" data-name="Path 110" d="M37.086,21.367a6.7,6.7,0,0,1-6.016-3.712H18.148A6.726,6.726,0,0,1,5.966,17.27a.6.6,0,0,1,.553-.836H9.576a1.8,1.8,0,1,0,0-3.609H6.5A.581.581,0,0,1,5.966,12,6.726,6.726,0,0,1,18.22,11.73h12.8A6.732,6.732,0,0,1,43.264,12a.607.607,0,0,1-.553.842H39.654a1.8,1.8,0,0,0,0,3.609H42.74a.6.6,0,0,1,.523.818,6.726,6.726,0,0,1-6.178,4.1ZM17.763,16.452h13.7a.6.6,0,0,1,.547.367,5.522,5.522,0,0,0,9.715.818H39.654a3.008,3.008,0,0,1,0-6.016h2.087a5.522,5.522,0,0,0-9.757.92.6.6,0,0,1-.559.373H17.805a.6.6,0,0,1-.553-.379,5.522,5.522,0,0,0-9.751-.9H9.576a3.008,3.008,0,0,1,0,6.016H7.5a5.522,5.522,0,0,0,9.715-.836.6.6,0,0,1,.547-.367Z" transform="translate(-1.397)" fill="#e64853"/>
  </g>
</svg>
