<svg xmlns="http://www.w3.org/2000/svg" width="99.987" height="100" viewBox="0 0 99.987 100">
  <g id="Group_106" data-name="Group 106" transform="translate(0 -0.001)">
    <path id="Path_111" data-name="Path 111" d="M174.755,158.1a2.491,2.491,0,1,0,0-4.982,19.928,19.928,0,1,0,19.928,19.928,2.491,2.491,0,0,0-4.982,0A14.946,14.946,0,1,1,174.755,158.1Zm0,0" transform="translate(-124.588 -123.211)" fill="#e64853"/>
    <path id="Path_112" data-name="Path 112" d="M97.7,35.039a2.493,2.493,0,0,0-4.758,1.489A45.02,45.02,0,1,1,63.473,7.064a2.493,2.493,0,0,0,1.49-4.758A49.986,49.986,0,1,0,97.7,35.039Zm0,0" transform="translate(0 0)" fill="#e64853"/>
    <path id="Path_113" data-name="Path 113" d="M117.922,79.43a2.693,2.693,0,0,0-2.491-2.71c-.744-.063-1.488-.127-2.252-.127a34.874,34.874,0,1,0,34.873,34.874,21.953,21.953,0,0,0-.166-2.7,2.5,2.5,0,0,0-4.951.721c.008.052.017.1.027.155.054.6.108,1.2.108,1.818a29.892,29.892,0,1,1-29.893-29.89h0c.618,0,1.217.053,1.819.107l.467.039a2.358,2.358,0,0,0,2.457-2.256c0-.012,0-.024,0-.035Zm0,0" transform="translate(-63.011 -61.633)" fill="#e64853"/>
    <path id="Path_114" data-name="Path 114" d="M261.414,43.018V51.95L244.707,68.657a2.491,2.491,0,1,0,3.461,3.584l.061-.061,16.707-16.707h8.932a2.491,2.491,0,0,0,1.762-.73L290.575,39.8a2.491,2.491,0,0,0-1.761-4.252h-7.473V28.072a2.491,2.491,0,0,0-4.252-1.761L262.144,41.257a2.488,2.488,0,0,0-.73,1.761Zm4.982,1.031,9.964-9.964v3.951a2.491,2.491,0,0,0,2.491,2.491H282.8l-9.964,9.964H266.4Zm0,0" transform="translate(-196.301 -20.585)" fill="#e64853"/>
  </g>
</svg>
