<svg xmlns="http://www.w3.org/2000/svg" width="56.625" height="55" viewBox="0 0 56.625 55">
  <g id="Group_106" data-name="Group 106" transform="translate(-4.803 -8)">
    <path id="Path_111" data-name="Path 111" d="M61.214,69.616a3.768,3.768,0,0,0-.751-2.453c-1.631-1.621-10.9-3.989-14.266-4.926-.87-.478-6.868-3.769-8.78-4.61-2.554-1.09-14.567-2.028-23.1-.32-2.616.536-6.212,3.668-7.269,4.711-1.2,1.2-.99,3.348-1.353,4.084a7.853,7.853,0,0,0-.875,4.084c-.086,1.4.048,2.683,2.544,3.692a9.593,9.593,0,0,0,2.606.478,5.361,5.361,0,0,0,10.019.679l26.571.78a5.366,5.366,0,0,0,8.89,0,18.689,18.689,0,0,0,4.113-.512c.588-.158,1.272-1.353,1.545-1.913C61.664,72.322,61.353,70.333,61.214,69.616Zm-17-6.279a3.066,3.066,0,0,1-.693.268c-.89-.033-6.7-.258-12.769-.6a39.5,39.5,0,0,0-.99-4.538,31.723,31.723,0,0,1,6.882.956C38.092,60.017,42.2,62.236,44.218,63.336ZM27.743,58.367a45.056,45.056,0,0,1,1.066,4.519c-2.869-.153-9.708-.392-13-.5,1.3-1.559,3.654-3.874,6.26-4.022C23.984,58.3,25.858,58.3,27.743,58.367Zm-11.119.478a19.1,19.1,0,0,0-3.223,3.52l-4.342.373c3.969-3.534,5.648-3.592,7.571-3.879ZM15.112,76.277A3.458,3.458,0,1,1,18.57,72.82a3.458,3.458,0,0,1-3.458,3.458Zm35.9,0a3.458,3.458,0,1,1,3.458-3.458,3.458,3.458,0,0,1-3.458,3.458Zm8.407-3.721a5.853,5.853,0,0,1-.607.956,17.433,17.433,0,0,1-2.525.349,5.371,5.371,0,1,0-10.521,0l-25.3-.713v-.325a5.366,5.366,0,0,0-10.7-.373,6.925,6.925,0,0,1-1.683-.335c-1.435-.574-1.406-.856-1.349-1.8a6.183,6.183,0,0,1,.674-3.348,5.739,5.739,0,0,0,.43-1.746,2.944,2.944,0,0,1,.067-.445l6.078-.526c.861.029,11.956.4,15.184.583,7.121.416,14.347.684,14.428.689a4.366,4.366,0,0,0,2.611-1.3c3.137.875,11.478,3.07,12.912,4.275a4.6,4.6,0,0,1,.225,1.406,7.021,7.021,0,0,1,.072,2.654Z" transform="translate(0 -25.236)" fill="#e64853"/>
    <path id="Path_112" data-name="Path 112" d="M50.964,106.594a.956.956,0,0,0,0,1.353,8.608,8.608,0,0,0,12.176,0,.957.957,0,1,0-1.353-1.353,6.7,6.7,0,0,1-9.469,0,.956.956,0,0,0-1.353,0Z" transform="translate(-23.939 -51.296)" fill="#e64853"/>
    <path id="Path_113" data-name="Path 113" d="M63.381,102.288a.957.957,0,1,0-1.353-1.353,2.869,2.869,0,0,1-4.06,0,.957.957,0,1,0-1.353,1.353,4.782,4.782,0,0,0,6.762,0Z" transform="translate(-26.887 -48.343)" fill="#e64853"/>
    <path id="Path_114" data-name="Path 114" d="M61.546,112.254a10.521,10.521,0,0,1-14.878,0,.957.957,0,1,0-1.353,1.353,12.434,12.434,0,0,0,17.585,0,.957.957,0,1,0-1.353-1.353Z" transform="translate(-20.991 -54.25)" fill="#e64853"/>
    <path id="Path_115" data-name="Path 115" d="M32.956,29.306a.956.956,0,0,0,.956-.956V9.913H60.694V33.825a.956.956,0,1,0,1.913,0V8.956A.956.956,0,0,0,61.651,8H32.956A.956.956,0,0,0,32,8.956V28.349A.956.956,0,0,0,32.956,29.306Z" transform="translate(-14.19)" fill="#e64853"/>
    <path id="Path_116" data-name="Path 116" d="M55.956,20a.956.956,0,0,0-.956.956V34.347a.956.956,0,1,0,1.913,0V29.565h2.869a4.479,4.479,0,0,0,4.782-4.782A4.479,4.479,0,0,0,59.782,20Zm6.7,4.782a2.588,2.588,0,0,1-2.869,2.869H56.913V21.913h2.869A2.588,2.588,0,0,1,62.652,24.782Z" transform="translate(-26.191 -6.261)" fill="#e64853"/>
  </g>
</svg>
