<svg id="Group_106" data-name="Group 106" xmlns="http://www.w3.org/2000/svg" width="100" height="100" viewBox="0 0 100 100">
  <path id="Path_111" data-name="Path 111" d="M50,71.094A28.939,28.939,0,0,0,21.094,100h7.813a20.972,20.972,0,0,1,3.68-11.89L41.671,97.2a8.765,8.765,0,0,0-.46,2.8H58.789a8.773,8.773,0,0,0-.46-2.8l9.085-9.085A20.975,20.975,0,0,1,71.094,100h7.813A28.939,28.939,0,0,0,50,71.094ZM47.2,91.671,38.11,82.586a21.049,21.049,0,0,1,23.779,0L52.8,91.671a8.783,8.783,0,0,0-5.61,0Zm38.16-27.026a49.808,49.808,0,0,0-19-11.918,28.906,28.906,0,1,0-32.71,0A50.079,50.079,0,0,0,0,100H7.812a42.188,42.188,0,0,1,84.375,0H100A49.674,49.674,0,0,0,85.355,64.645ZM28.906,28.906A21.094,21.094,0,1,1,50,50,21.118,21.118,0,0,1,28.906,28.906Z" fill="#e64853"/>
</svg>
