<svg xmlns="http://www.w3.org/2000/svg" width="45.009" height="45" viewBox="0 0 45.009 45">
  <g id="Group_39" data-name="Group 39" transform="translate(-5 -5)">
    <path id="Path_57" data-name="Path 57" d="M35.614,9H13.96a.9.9,0,0,0-.9.9V22.617a.9.9,0,0,0,.9.9H35.614a.9.9,0,0,0,.9-.9V9.9a.9.9,0,0,0-.9-.9Zm-.9,12.717H14.86V10.8H34.714Z" transform="translate(-0.806 -0.4)" fill="#e64853"/>
    <path id="Path_58" data-name="Path 58" d="M35.237,29.44a3.176,3.176,0,0,0-3.177,3.177v7.6a3.177,3.177,0,1,0,6.354,0v-7.6A3.176,3.176,0,0,0,35.237,29.44Zm1.377,10.773a1.377,1.377,0,1,1-2.754,0v-7.6a1.377,1.377,0,1,1,2.754,0Z" transform="translate(-2.706 -2.444)" fill="#e64853"/>
    <path id="Path_59" data-name="Path 59" d="M42.692,8.177a.9.9,0,1,0-1.251,1.287l2.277,2.2V17.33a3.572,3.572,0,0,0,3.564,3.564H48.2v18.2a1.755,1.755,0,1,1-3.51,0V36.68a3.557,3.557,0,0,0-3.555-3.555H39.308V5.9a.9.9,0,0,0-.9-.9H9.554a.9.9,0,0,0-.9.9V44.825H5.9a.9.9,0,0,0-.9.9V49.1a.9.9,0,0,0,.9.9H42.071a.9.9,0,0,0,.9-.9V45.725a.9.9,0,0,0-.9-.9H39.317v-9.9h1.827A1.757,1.757,0,0,1,42.9,36.68V39.1a3.555,3.555,0,1,0,7.11,0V15.647a.92.92,0,0,0-.27-.648ZM41.171,48.2H6.8V46.625H41.162V48.2ZM10.454,44.825V6.8H37.508V44.825ZM47.282,19.1a1.767,1.767,0,0,1-1.764-1.764V13.424l2.682,2.61V19.1Z" transform="translate(0)" fill="#e64853"/>
  </g>
</svg>
