<svg xmlns="http://www.w3.org/2000/svg" width="100" height="100.146" viewBox="0 0 100 100.146">
  <g id="Group_108" data-name="Group 108" transform="translate(-0.344 0)">
    <g id="Group_107" data-name="Group 107" transform="translate(0.344 0)">
      <g id="Group_106" data-name="Group 106" transform="translate(0 0)">
        <path id="Path_111" data-name="Path 111" d="M79.418,83.65a9.85,9.85,0,0,0-7.144-3.276,10.185,10.185,0,0,0-7.229,3.255l-6.679,6.658c-.55-.3-1.1-.571-1.628-.845-.761-.38-1.48-.74-2.093-1.12a72.593,72.593,0,0,1-17.4-15.852,42.827,42.827,0,0,1-5.707-9c1.733-1.585,3.34-3.234,4.9-4.819.592-.592,1.184-1.2,1.775-1.8,4.439-4.439,4.439-10.188,0-14.626l-5.77-5.77c-.655-.655-1.332-1.332-1.966-2.008-1.268-1.31-2.6-2.663-3.974-3.931a10.005,10.005,0,0,0-7.081-3.107,10.353,10.353,0,0,0-7.186,3.107l-.042.042-7.186,7.25A15.464,15.464,0,0,0,.431,47.634c-.507,6.172,1.31,11.921,2.705,15.683,3.424,9.237,8.539,17.8,16.169,26.97a99.466,99.466,0,0,0,33.121,25.934c4.861,2.3,11.35,5.03,18.6,5.5.444.021.909.042,1.332.042a15.927,15.927,0,0,0,12.2-5.242c.021-.042.063-.063.085-.106a48.052,48.052,0,0,1,3.7-3.826c.909-.867,1.839-1.775,2.748-2.727a10.544,10.544,0,0,0,3.192-7.313,10.158,10.158,0,0,0-3.255-7.25Zm7.567,22.257c-.021,0-.021.021,0,0-.824.888-1.67,1.691-2.579,2.579a55.575,55.575,0,0,0-4.079,4.227,10.189,10.189,0,0,1-7.947,3.361c-.317,0-.655,0-.972-.021-6.278-.4-12.111-2.853-16.486-4.946a93.89,93.89,0,0,1-31.2-24.434C16.516,77.985,11.7,69.954,8.506,61.33,6.54,56.067,5.821,51.967,6.138,48.1a9.7,9.7,0,0,1,2.917-6.278l7.208-7.208a4.8,4.8,0,0,1,3.213-1.5,4.521,4.521,0,0,1,3.086,1.48l.063.063c1.289,1.2,2.515,2.452,3.8,3.783.655.676,1.332,1.353,2.008,2.05l5.77,5.77c2.24,2.24,2.24,4.312,0,6.552-.613.613-1.2,1.226-1.818,1.818-1.775,1.818-3.466,3.509-5.305,5.157-.042.042-.085.063-.106.106a4.311,4.311,0,0,0-1.1,4.8l.063.19A46.326,46.326,0,0,0,32.77,76.02l.021.021A77.578,77.578,0,0,0,51.56,93.119a28.858,28.858,0,0,0,2.6,1.416c.761.38,1.48.74,2.093,1.12.085.042.169.106.254.148a4.582,4.582,0,0,0,2.093.528,4.519,4.519,0,0,0,3.213-1.458l7.229-7.229a4.782,4.782,0,0,1,3.192-1.585A4.3,4.3,0,0,1,75.275,87.6l.042.042L86.964,99.291C89.141,101.447,89.141,103.666,86.985,105.907Z" transform="translate(-0.344 -21.613)" fill="#e64853"/>
        <path id="Path_112" data-name="Path 112" d="M247.292,91.586a27.2,27.2,0,0,1,22.151,22.151,2.836,2.836,0,0,0,2.811,2.367,3.774,3.774,0,0,0,.486-.042,2.856,2.856,0,0,0,2.346-3.3,32.892,32.892,0,0,0-26.8-26.8,2.868,2.868,0,0,0-3.3,2.325A2.823,2.823,0,0,0,247.292,91.586Z" transform="translate(-193.244 -67.764)" fill="#e64853"/>
        <path id="Path_113" data-name="Path 113" d="M296.223,44.176A54.161,54.161,0,0,0,252.09.044a2.849,2.849,0,1,0-.93,5.622A48.377,48.377,0,0,1,290.6,45.107a2.836,2.836,0,0,0,2.811,2.367,3.774,3.774,0,0,0,.486-.042A2.8,2.8,0,0,0,296.223,44.176Z" transform="translate(-196.266 0)" fill="#e64853"/>
      </g>
    </g>
  </g>
</svg>
