<svg id="Group_20" data-name="Group 20" xmlns="http://www.w3.org/2000/svg" width="55" height="55" viewBox="0 0 55 55">
  <g id="Group_19" data-name="Group 19">
    <g id="Group_18" data-name="Group 18">
      <g id="Group_17" data-name="Group 17">
        <path id="Path_23" data-name="Path 23" d="M154.96,233.546l-3.206-2.861L137.9,246.211l-7.765-7.44-2.973,3.1,10.979,10.521Z" transform="translate(-113.503 -205.904)" fill="#e64853"/>
        <path id="Path_24" data-name="Path 24" d="M48.555,4.3H45.977V0h-4.3V4.3H13.32V0h-4.3V4.3H6.445A6.453,6.453,0,0,0,0,10.742V48.555A6.453,6.453,0,0,0,6.445,55H48.555A6.453,6.453,0,0,0,55,48.555V10.742A6.453,6.453,0,0,0,48.555,4.3ZM50.7,48.555A2.151,2.151,0,0,1,48.555,50.7H6.445A2.151,2.151,0,0,1,4.3,48.555V20.2H50.7Zm0-32.656H4.3V10.742A2.151,2.151,0,0,1,6.445,8.594H9.023v4.3h4.3v-4.3H41.68v4.3h4.3v-4.3h2.578A2.151,2.151,0,0,1,50.7,10.742Z" fill="#e64853"/>
      </g>
    </g>
  </g>
</svg>
