<svg xmlns="http://www.w3.org/2000/svg" width="36.284" height="45" viewBox="0 0 36.284 45">
  <g id="Group_25" data-name="Group 25" transform="translate(-68.982 -25.608)">
    <g id="_x32_1" transform="translate(68.982 25.608)">
      <g id="XMLID_237_" transform="translate(0 0)">
        <g id="XMLID_246_" transform="translate(0 33.154)">
          <path id="XMLID_203_" d="M87.124,379.224a46.313,46.313,0,0,1-12.413-1.5c-3.748-1.091-5.729-2.636-5.729-4.467,0-3.653,7.783-5.439,14.448-5.858a.97.97,0,0,1,.122,1.936,36.27,36.27,0,0,0-9.406,1.673c-2.379.848-3.223,1.741-3.223,2.249s.912,1.608,4.331,2.6a44.356,44.356,0,0,0,11.871,1.426A44.357,44.357,0,0,0,99,375.858c3.418-1,4.33-2.105,4.33-2.6,0-1.306-4.594-3.459-12.9-3.937a.97.97,0,1,1,.111-1.937c6.794.391,14.729,2.164,14.729,5.874,0,1.831-1.981,3.375-5.728,4.467A46.317,46.317,0,0,1,87.124,379.224Z" transform="translate(-68.982 -367.378)" fill="#e64853"/>
        </g>
        <g id="XMLID_242_" transform="translate(3.561)">
          <path id="XMLID_243_" d="M120.12,66.444a.97.97,0,0,1-.849-.5c-.877-1.581-2.226-3.727-3.788-6.211-4.363-6.941-9.793-15.578-9.793-19.7a14.428,14.428,0,1,1,28.856,0c0,4.324-5.112,12.37-9.623,19.468-1.553,2.444-3.02,4.753-3.955,6.44A.97.97,0,0,1,120.12,66.444Zm0-38.9a12.5,12.5,0,0,0-12.489,12.489c0,3.559,5.488,12.289,9.5,18.664,1.141,1.816,2.17,3.452,2.994,4.835.891-1.492,2-3.244,3.166-5.072,3.933-6.19,9.32-14.667,9.32-18.427A12.5,12.5,0,0,0,120.12,27.548Z" transform="translate(-105.691 -25.608)" fill="#e64853"/>
        </g>
        <g id="XMLID_238_" transform="translate(11.005 6.937)">
          <path id="XMLID_239_" d="M189.413,111.083A6.984,6.984,0,1,1,196.4,104.1,6.992,6.992,0,0,1,189.413,111.083Zm0-12.027a5.044,5.044,0,1,0,5.042,5.045A5.051,5.051,0,0,0,189.413,99.056Z" transform="translate(-182.428 -97.116)" fill="#e64853"/>
        </g>
      </g>
    </g>
  </g>
</svg>
