<svg id="Group_42" data-name="Group 42" xmlns="http://www.w3.org/2000/svg" width="42.514" height="30" viewBox="0 0 42.514 30">
  <path id="Path_61" data-name="Path 61" d="M12.95,15.823a23.912,23.912,0,0,1,4.372-6.911,2.1,2.1,0,0,0,.2-2.529,2.064,2.064,0,0,0-1.748-.967,2.123,2.123,0,0,0-.594.085C11,6.721,1.263,11.054,1,24.9a10.2,10.2,0,0,0,8.9,10.46,9.948,9.948,0,0,0,10.977-9.891,9.824,9.824,0,0,0-7.933-9.651ZM15.7,30.749a7.03,7.03,0,0,1-4.756,1.834,7.286,7.286,0,0,1-.754-.039,7.353,7.353,0,0,1-6.356-7.586c.181-9.584,5.369-13.9,9.666-15.828a25.088,25.088,0,0,0-3.188,5.648,2.712,2.712,0,0,0,.134,2.29A2.875,2.875,0,0,0,12.4,18.516a7.109,7.109,0,0,1,3.3,12.234Z" transform="translate(21.631 -5.416)" fill="#e64853"/>
  <path id="Path_62" data-name="Path 62" d="M33.488,6.382a2.064,2.064,0,0,0-1.748-.967,2.127,2.127,0,0,0-.594.085c-4.175,1.22-13.914,5.553-14.175,19.4h0a10.2,10.2,0,0,0,8.905,10.46,9.948,9.948,0,0,0,10.976-9.891,9.824,9.824,0,0,0-7.932-9.651A23.9,23.9,0,0,1,33.292,8.91a2.1,2.1,0,0,0,.2-2.528Zm-7.2,8.395a2.714,2.714,0,0,0,.133,2.29,2.878,2.878,0,0,0,1.953,1.448,7.109,7.109,0,0,1,3.3,12.234,7.027,7.027,0,0,1-4.756,1.834,7.116,7.116,0,0,1-7.11-7.625c.18-9.584,5.369-13.9,9.666-15.828a25.126,25.126,0,0,0-3.187,5.647Z" transform="translate(-16.97 -5.415)" fill="#e64853"/>
</svg>
