<svg xmlns="http://www.w3.org/2000/svg" width="33.493" height="35" viewBox="0 0 33.493 35">
  <g id="Group_90" data-name="Group 90" transform="translate(-11.022)">
    <path id="Path_88" data-name="Path 88" d="M100.108,108.164h.093a3.884,3.884,0,0,0,7.592,0h.092a.82.82,0,0,0,.82-.82v-4.257a11.153,11.153,0,1,0-9.417,0v4.257A.82.82,0,0,0,100.108,108.164Zm6.957-1.641h-6.137v-1h6.137ZM104,109.587a2.247,2.247,0,0,1-2.087-1.423h4.175A2.247,2.247,0,0,1,104,109.587ZM94.484,92.974a9.513,9.513,0,1,1,13.092,8.816.82.82,0,0,0-.511.76v1.338h-6.137V102.55a.82.82,0,0,0-.511-.76,9.479,9.479,0,0,1-5.933-8.816Z" transform="translate(-76.228 -76.228)" fill="#e64853"/>
    <path id="Path_89" data-name="Path 89" d="M245.641,3.483V.82A.82.82,0,0,0,244,.82V3.483a.82.82,0,0,0,1.641,0Z" transform="translate(-217.052)" fill="#e64853"/>
    <path id="Path_90" data-name="Path 90" d="M341.833,35.16a.82.82,0,0,0,.711-.41l1.331-2.306a.82.82,0,1,0-1.421-.82l-1.331,2.306a.82.82,0,0,0,.71,1.23Z" transform="translate(-307.433 -29.079)" fill="#e64853"/>
    <path id="Path_91" data-name="Path 91" d="M412.139,119.049a.82.82,0,0,0,1.121.3l2.306-1.331a.82.82,0,1,0-.82-1.421l-2.306,1.331A.82.82,0,0,0,412.139,119.049Z" transform="translate(-373.595 -108.524)" fill="#e64853"/>
    <path id="Path_92" data-name="Path 92" d="M438.025,233.8a.82.82,0,0,0,.82.82h2.663a.82.82,0,1,0,0-1.641h-2.663A.82.82,0,0,0,438.025,233.8Z" transform="translate(-397.813 -217.052)" fill="#e64853"/>
    <path id="Path_93" data-name="Path 93" d="M412.439,331.521l2.306,1.331a.82.82,0,1,0,.82-1.421L413.26,330.1a.82.82,0,1,0-.82,1.421Z" transform="translate(-373.594 -307.432)" fill="#e64853"/>
    <path id="Path_94" data-name="Path 94" d="M44.949,330.1l-2.306,1.331a.82.82,0,1,0,.82,1.421l2.306-1.331a.82.82,0,1,0-.82-1.421Z" transform="translate(-29.077 -307.43)" fill="#e64853"/>
    <path id="Path_95" data-name="Path 95" d="M11.842,234.619h2.663a.82.82,0,1,0,0-1.641H11.842a.82.82,0,1,0,0,1.641Z" transform="translate(0 -217.052)" fill="#e64853"/>
    <path id="Path_96" data-name="Path 96" d="M42.643,118.021l2.306,1.331a.82.82,0,1,0,.82-1.421L43.464,116.6a.82.82,0,1,0-.82,1.421Z" transform="translate(-29.077 -108.527)" fill="#e64853"/>
    <path id="Path_97" data-name="Path 97" d="M129.659,35.158a.82.82,0,0,0,.71-1.23l-1.332-2.306a.82.82,0,1,0-1.421.82l1.332,2.306a.82.82,0,0,0,.711.41Z" transform="translate(-108.521 -29.077)" fill="#e64853"/>
    <path id="Path_98" data-name="Path 98" d="M208.575,153.471h-.451a1.632,1.632,0,0,1-1.63-1.63.82.82,0,0,0-1.641,0,3.275,3.275,0,0,0,2.676,3.216v.527a.82.82,0,0,0,1.641,0v-.527a3.27,3.27,0,0,0-.595-6.486h-.352a1.63,1.63,0,0,1,0-3.26h.253a1.632,1.632,0,0,1,1.63,1.63.82.82,0,0,0,1.641,0,3.276,3.276,0,0,0-2.577-3.2V143.2a.82.82,0,0,0-1.641,0v.547a3.271,3.271,0,0,0,.694,6.467h.352a1.63,1.63,0,0,1,0,3.26Z" transform="translate(-180.581 -132.644)" fill="#e64853"/>
  </g>
</svg>
