<svg id="Group_134" data-name="Group 134" xmlns="http://www.w3.org/2000/svg" width="100" height="100" viewBox="0 0 100 100">
  <g id="Group_107" data-name="Group 107">
    <g id="Group_106" data-name="Group 106">
      <path id="Path_111" data-name="Path 111" d="M91.667,13.333H90V5a5.006,5.006,0,0,0-5-5H81.667a5.006,5.006,0,0,0-5,5v8.333H23.333V5a5.006,5.006,0,0,0-5-5H15a5.006,5.006,0,0,0-5,5v8.333H8.333A8.343,8.343,0,0,0,0,21.667v70A8.343,8.343,0,0,0,8.333,100H91.667A8.343,8.343,0,0,0,100,91.667v-70A8.343,8.343,0,0,0,91.667,13.333ZM80,15V5a1.667,1.667,0,0,1,1.667-1.667H85A1.667,1.667,0,0,1,86.667,5V21.667A1.667,1.667,0,0,1,85,23.333H81.667A1.667,1.667,0,0,1,80,21.667ZM13.333,15V5A1.667,1.667,0,0,1,15,3.333h3.333A1.667,1.667,0,0,1,20,5V21.667a1.667,1.667,0,0,1-1.667,1.667H15a1.667,1.667,0,0,1-1.667-1.667ZM96.667,91.667a5.006,5.006,0,0,1-5,5H8.333a5.006,5.006,0,0,1-5-5V43.333H96.667Zm0-51.667H3.333V21.667a5.006,5.006,0,0,1,5-5H10v5a5.006,5.006,0,0,0,5,5h3.333a5.006,5.006,0,0,0,5-5v-5H76.667v5a5.006,5.006,0,0,0,5,5H85a5.006,5.006,0,0,0,5-5v-5h1.667a5.006,5.006,0,0,1,5,5Z" fill="#e64853"/>
    </g>
  </g>
  <g id="Group_109" data-name="Group 109" transform="translate(30 21.667)">
    <g id="Group_108" data-name="Group 108">
      <path id="Path_112" data-name="Path 112" d="M182.333,104H145.667A1.665,1.665,0,0,0,144,105.667v10a1.665,1.665,0,0,0,1.667,1.667h36.667A1.665,1.665,0,0,0,184,115.667v-10A1.665,1.665,0,0,0,182.333,104Zm-1.667,10H147.333v-6.667h33.333Z" transform="translate(-144 -104)" fill="#e64853"/>
    </g>
  </g>
  <g id="Group_111" data-name="Group 111" transform="translate(10 48.333)">
    <g id="Group_110" data-name="Group 110">
      <path id="Path_113" data-name="Path 113" d="M59.667,232h-10A1.665,1.665,0,0,0,48,233.667V242a1.665,1.665,0,0,0,1.667,1.667h10A1.665,1.665,0,0,0,61.333,242v-8.333A1.665,1.665,0,0,0,59.667,232ZM58,240.333H51.333v-5H58Z" transform="translate(-48 -232)" fill="#e64853"/>
    </g>
  </g>
  <g id="Group_113" data-name="Group 113" transform="translate(31.667 48.333)">
    <g id="Group_112" data-name="Group 112">
      <path id="Path_114" data-name="Path 114" d="M163.667,232h-10A1.665,1.665,0,0,0,152,233.667V242a1.665,1.665,0,0,0,1.667,1.667h10A1.665,1.665,0,0,0,165.333,242v-8.333A1.665,1.665,0,0,0,163.667,232ZM162,240.333h-6.667v-5H162Z" transform="translate(-152 -232)" fill="#e64853"/>
    </g>
  </g>
  <g id="Group_115" data-name="Group 115" transform="translate(55 48.333)">
    <g id="Group_114" data-name="Group 114">
      <path id="Path_115" data-name="Path 115" d="M275.667,232h-10A1.665,1.665,0,0,0,264,233.667V242a1.665,1.665,0,0,0,1.667,1.667h10A1.665,1.665,0,0,0,277.333,242v-8.333A1.665,1.665,0,0,0,275.667,232ZM274,240.333h-6.667v-5H274Z" transform="translate(-264 -232)" fill="#e64853"/>
    </g>
  </g>
  <g id="Group_117" data-name="Group 117" transform="translate(76.667 48.333)">
    <g id="Group_116" data-name="Group 116">
      <path id="Path_116" data-name="Path 116" d="M379.667,232h-10A1.665,1.665,0,0,0,368,233.667V242a1.665,1.665,0,0,0,1.667,1.667h10A1.665,1.665,0,0,0,381.333,242v-8.333A1.665,1.665,0,0,0,379.667,232ZM378,240.333h-6.667v-5H378Z" transform="translate(-368 -232)" fill="#e64853"/>
    </g>
  </g>
  <g id="Group_119" data-name="Group 119" transform="translate(10 65)">
    <g id="Group_118" data-name="Group 118">
      <path id="Path_117" data-name="Path 117" d="M59.667,312h-10A1.665,1.665,0,0,0,48,313.667V322a1.665,1.665,0,0,0,1.667,1.667h10A1.665,1.665,0,0,0,61.333,322v-8.333A1.665,1.665,0,0,0,59.667,312ZM58,320.333H51.333v-5H58Z" transform="translate(-48 -312)" fill="#e64853"/>
    </g>
  </g>
  <g id="Group_121" data-name="Group 121" transform="translate(31.667 65)">
    <g id="Group_120" data-name="Group 120">
      <path id="Path_118" data-name="Path 118" d="M163.667,312h-10A1.665,1.665,0,0,0,152,313.667V322a1.665,1.665,0,0,0,1.667,1.667h10A1.665,1.665,0,0,0,165.333,322v-8.333A1.665,1.665,0,0,0,163.667,312ZM162,320.333h-6.667v-5H162Z" transform="translate(-152 -312)" fill="#e64853"/>
    </g>
  </g>
  <g id="Group_123" data-name="Group 123" transform="translate(55 65)">
    <g id="Group_122" data-name="Group 122">
      <path id="Path_119" data-name="Path 119" d="M275.667,312h-10A1.665,1.665,0,0,0,264,313.667V322a1.665,1.665,0,0,0,1.667,1.667h10A1.665,1.665,0,0,0,277.333,322v-8.333A1.665,1.665,0,0,0,275.667,312ZM274,320.333h-6.667v-5H274Z" transform="translate(-264 -312)" fill="#e64853"/>
    </g>
  </g>
  <g id="Group_125" data-name="Group 125" transform="translate(76.667 65)">
    <g id="Group_124" data-name="Group 124">
      <path id="Path_120" data-name="Path 120" d="M379.667,312h-10A1.665,1.665,0,0,0,368,313.667V322a1.665,1.665,0,0,0,1.667,1.667h10A1.665,1.665,0,0,0,381.333,322v-8.333A1.665,1.665,0,0,0,379.667,312ZM378,320.333h-6.667v-5H378Z" transform="translate(-368 -312)" fill="#e64853"/>
    </g>
  </g>
  <g id="Group_127" data-name="Group 127" transform="translate(10 81.667)">
    <g id="Group_126" data-name="Group 126">
      <path id="Path_121" data-name="Path 121" d="M59.667,392h-10A1.665,1.665,0,0,0,48,393.667V402a1.665,1.665,0,0,0,1.667,1.667h10A1.665,1.665,0,0,0,61.333,402v-8.333A1.665,1.665,0,0,0,59.667,392ZM58,400.333H51.333v-5H58Z" transform="translate(-48 -392)" fill="#e64853"/>
    </g>
  </g>
  <g id="Group_129" data-name="Group 129" transform="translate(31.667 81.667)">
    <g id="Group_128" data-name="Group 128">
      <path id="Path_122" data-name="Path 122" d="M163.667,392h-10A1.665,1.665,0,0,0,152,393.667V402a1.665,1.665,0,0,0,1.667,1.667h10A1.665,1.665,0,0,0,165.333,402v-8.333A1.665,1.665,0,0,0,163.667,392ZM162,400.333h-6.667v-5H162Z" transform="translate(-152 -392)" fill="#e64853"/>
    </g>
  </g>
  <g id="Group_131" data-name="Group 131" transform="translate(53.822 80.6)">
    <g id="Group_130" data-name="Group 130">
      <path id="Path_123" data-name="Path 123" d="M271.576,386.88l-7.165,8.6-3.71-3.71-2.357,2.357,5,5a1.655,1.655,0,0,0,1.178.488c.025,0,.05,0,.075,0a1.678,1.678,0,0,0,1.207-.6l8.333-10Z" transform="translate(-258.344 -386.88)" fill="#e64853"/>
    </g>
  </g>
  <g id="Group_133" data-name="Group 133" transform="translate(73.822 80.6)">
    <g id="Group_132" data-name="Group 132">
      <path id="Path_124" data-name="Path 124" d="M367.576,386.88l-7.165,8.6-3.71-3.71-2.357,2.357,5,5a1.655,1.655,0,0,0,1.178.488c.025,0,.05,0,.075,0a1.678,1.678,0,0,0,1.207-.6l8.333-10Z" transform="translate(-354.344 -386.88)" fill="#e64853"/>
    </g>
  </g>
</svg>
