<svg xmlns="http://www.w3.org/2000/svg" width="35.644" height="45" viewBox="0 0 35.644 45">
  <g id="Group_106" data-name="Group 106" transform="translate(-4 -0.936)">
    <path id="Path_111" data-name="Path 111" d="M21.822.936,4,7.417V23.094a19.455,19.455,0,0,0,7.992,15.692l9.83,7.149,9.83-7.15a19.455,19.455,0,0,0,7.992-15.692V7.417ZM36.673,23.094a16.485,16.485,0,0,1-6.768,13.291l-8.084,5.88-8.084-5.88A16.485,16.485,0,0,1,6.97,23.094V9.5L21.822,4.1,36.673,9.5Z" fill="#e64853"/>
    <path id="Path_112" data-name="Path 112" d="M12.393,14.756l-2.1,2.1,6.619,6.619L27.244,13.143l-2.1-2.1-8.232,8.232Z" transform="translate(3.053 4.903)" fill="#e64853"/>
  </g>
</svg>
