<svg xmlns="http://www.w3.org/2000/svg" width="34.56" height="45" viewBox="0 0 34.56 45">
  <g id="Group_26" data-name="Group 26" transform="translate(-10.11 -2)">
    <path id="Path_44" data-name="Path 44" d="M41.226,65.882H22.21V54.87H41.226ZM23.5,64.6H39.94V56.156H23.5Z" transform="translate(-4.321 -18.882)" fill="#e64853"/>
    <path id="Path_45" data-name="Path 45" d="M50.989,64.738H50.5l.051-1.286c5.921.238,6.776-4.661,6.808-4.866v-.071c1.209-4.5-1.851-5.413-1.98-5.445-2.006-.643-4.384,1.729-4.4,1.755l-.926-.9c.122-.122,2.931-2.97,5.689-2.089a4.5,4.5,0,0,1,2.514,2.012,6.392,6.392,0,0,1,.36,4.976,7.354,7.354,0,0,1-7.624,5.914Z" transform="translate(-14.264 -17.738)" fill="#e64853"/>
    <path id="Path_46" data-name="Path 46" d="M18.069,64.729a7.384,7.384,0,0,1-7.637-5.921,6.4,6.4,0,0,1,.36-4.976,4.5,4.5,0,0,1,2.571-2.025c2.726-.874,5.529,1.98,5.651,2.1l-.926.9s-2.372-2.4-4.371-1.768c-.161.045-3.214.932-2.012,5.458v.071c.032.206.881,5.1,6.808,4.866l.051,1.286Z" transform="translate(0 -17.729)" fill="#e64853"/>
    <path id="Path_47" data-name="Path 47" d="M42.125,41.236c-.084-.321-2.025-7.946-1.5-14.567v-.077a4.924,4.924,0,0,0-.842-3.684c-.849-1.009-2.3-1.536-4.307-1.536H22.614c-2.019,0-3.471.527-4.326,1.562a4.924,4.924,0,0,0-.816,3.684v.077c.521,6.621-1.421,14.246-1.5,14.567L14.72,40.94c0-.077,1.961-7.714,1.472-14.143A6.165,6.165,0,0,1,17.3,22.1c1.112-1.35,2.906-2.038,5.329-2.038H35.471c2.424,0,4.217.688,5.329,2.038a6.165,6.165,0,0,1,1.1,4.725c-.489,6.429,1.446,14.04,1.472,14.143Z" transform="translate(-1.646 -6.45)" fill="#e64853"/>
    <path id="Path_48" data-name="Path 48" d="M40.163,44.095H25.93V21.1h1.286V42.809H38.877V21.1h1.286Z" transform="translate(-5.65 -6.821)" fill="#e64853"/>
    <path id="Path_49" data-name="Path 49" d="M26.93,34.92H39.877v1.286H26.93Z" transform="translate(-6.007 -11.757)" fill="#e64853"/>
    <path id="Path_50" data-name="Path 50" d="M38.62,19.864H31.33V15.84h7.29Zm-6-1.286h4.719V17.126H32.616Z" transform="translate(-7.579 -4.943)" fill="#e64853"/>
    <path id="Path_51" data-name="Path 51" d="M37.9,12.183H28.05a2.321,2.321,0,0,1-2.308-2.571L26.3,4.076A2.314,2.314,0,0,1,28.61,2h8.73a2.314,2.314,0,0,1,2.314,2.1l.553,5.529A2.321,2.321,0,0,1,37.9,12.2Zm-9.289-8.9a1.035,1.035,0,0,0-1.035.932l-.553,5.535A1.028,1.028,0,0,0,28.05,10.9H37.9a1.028,1.028,0,0,0,1.029-1.144l-.553-5.529a1.035,1.035,0,0,0-1.035-.939Z" transform="translate(-5.578)" fill="#e64853"/>
  </g>
</svg>
