<svg xmlns="http://www.w3.org/2000/svg" width="18" height="15.645" viewBox="0 0 18 15.645">
  <g id="Group_44" data-name="Group 44" transform="translate(-0.001 -33.492)">
    <g id="Group_43" data-name="Group 43" transform="translate(0.001 33.492)">
      <path id="Path_63" data-name="Path 63" d="M17.989,34.131a.528.528,0,0,0-.7-.6L.34,40a.527.527,0,0,0,0,.985L5.1,42.819v5.791a.527.527,0,0,0,1,.237L8.066,44.94l4.8,3.566a.528.528,0,0,0,.819-.27C18.175,33.528,17.981,34.168,17.989,34.131Zm-4.183,1.853L5.551,41.863,2,40.491ZM6.153,42.729l7.2-5.124c-6.191,6.532-5.868,6.188-5.9,6.224-.04.054.07-.156-1.3,2.562ZM12.9,47.213,8.669,44.074l7.647-8.067Z" transform="translate(-0.001 -33.492)" fill="#fff"/>
    </g>
  </g>
</svg>
