<svg xmlns="http://www.w3.org/2000/svg" width="60" height="60" viewBox="0 0 60 60">
  <g id="Group_106" data-name="Group 106" transform="translate(-2 -2)">
    <path id="Path_111" data-name="Path 111" d="M2.2,50.6l2.653,3.538L2.081,60.606a1,1,0,0,0,1.4,1.27l20-11a1,1,0,0,0,0-1.752l-20-11a1,1,0,0,0-1.4,1.27l2.772,6.468L2.2,49.4a1,1,0,0,0,0,1.2Zm4.52,4.258,9.388-2.209L5.063,58.724Zm9.388-7.508L6.72,45.142,5.063,41.276Zm-9.7-.227L18.633,50,6.407,52.877,4.25,50Z" fill="#e64853"/>
    <path id="Path_112" data-name="Path 112" d="M46,2A16.007,16.007,0,0,0,30.051,17H27.414l-2.707-2.707-1.414,1.414L24.586,17H20.5a10.5,10.5,0,0,0,0,21H31.586l2.707,2.707,1.414-1.414L34.414,38H53.5a5.5,5.5,0,0,1,0,11H44.414l-2.707-2.707-1.414,1.414L41.586,49H26v2H41.586l-1.293,1.293,1.414,1.414L44.414,51H53.5a7.5,7.5,0,0,0,0-15H34.414l1.293-1.293-1.414-1.414L31.586,36H20.5a8.5,8.5,0,1,1,0-17h4.086l-1.293,1.293,1.414,1.414L27.414,19h2.637A15.991,15.991,0,1,0,46,2Zm0,30A14.008,14.008,0,0,1,32.051,19h3a11,11,0,1,0,0-2h-3A13.993,13.993,0,1,1,46,32ZM43.707,21.707l3-3a1,1,0,0,0,0-1.414l-3-3-1.414,1.414L43.586,17H37.059a9,9,0,1,1,0,2h6.527l-1.293,1.293Z" fill="#e64853"/>
    <path id="Path_113" data-name="Path 113" d="M52,18a6.007,6.007,0,0,0-6-6v2a4,4,0,0,1,0,8v2A6.007,6.007,0,0,0,52,18Z" fill="#e64853"/>
  </g>
</svg>
