<svg xmlns="http://www.w3.org/2000/svg" width="45.427" height="45" viewBox="0 0 45.427 45">
  <g id="Group_106" data-name="Group 106" transform="translate(-10.96 -7)">
    <path id="Path_111" data-name="Path 111" d="M56,67.446a15.611,15.611,0,0,1-.127-2.863,3.023,3.023,0,0,0-2.131-2.536c-.818-.164-8.3-.818-10.224-.977l-3.259-4.36c-.867-1.166-1.988-1.6-3.865-1.5a.819.819,0,0,0,.086,1.636c1.489-.082,2.016.233,2.454.842.691.928,3.468,4.638,3.468,4.638a.818.818,0,0,0,.585.327c3.861.327,9.815.863,10.425.982.364.074.761.712.818.961,0,.818-.11,2.818.315,3.611a1.967,1.967,0,0,1,.053,1.472,1.831,1.831,0,0,1-1.476,1.579c-1.19.323-2.515.622-3.21.773a5.852,5.852,0,0,0-10.572.086H24.161a5.852,5.852,0,0,0-9.938-1.1c-.266,0-1.4-.168-1.4-.658,0-1.808-.36-4.45-.2-5.885a5.5,5.5,0,0,1,.654-1.112.818.818,0,0,0,.147-.364c0-.135.454-3.239.5-3.918A1.636,1.636,0,0,1,15.4,57.393a.818.818,0,1,0-.041-1.636,3.267,3.267,0,0,0-3.067,3.2c-.037.483-.327,2.609-.466,3.611a4.724,4.724,0,0,0-.818,1.693c-.18,1.66.192,4.319.192,6.094,0,1.227,1.018,1.943,2.176,2.192a5.865,5.865,0,1,0,11.288,1.206H38.847a5.865,5.865,0,1,0,11.574-.159c.744-.164,1.983-.446,3.133-.757a3.439,3.439,0,0,0,2.617-2.711A3.182,3.182,0,0,0,56,67.446ZM18.853,78.835A4.233,4.233,0,1,1,23.086,74.6,4.233,4.233,0,0,1,18.853,78.835Zm25.794,0A4.233,4.233,0,1,1,48.879,74.6,4.233,4.233,0,0,1,44.647,78.835Z" transform="translate(0 -28.485)" fill="#e64853"/>
    <path id="Path_112" data-name="Path 112" d="M58.09,27.179A4.09,4.09,0,1,0,54,23.09,4.09,4.09,0,0,0,58.09,27.179Zm0-6.519a2.454,2.454,0,1,1-2.454,2.454A2.454,2.454,0,0,1,58.09,20.66Z" transform="translate(-25.438 -7.092)" fill="#e64853"/>
    <path id="Path_113" data-name="Path 113" d="M42.818,28.636h1.636a.818.818,0,1,0,0-1.636H42.818a.818.818,0,1,0,0,1.636Z" transform="translate(-18.346 -11.821)" fill="#e64853"/>
    <path id="Path_114" data-name="Path 114" d="M78,27.818a.818.818,0,0,0,.818.818h1.636a.818.818,0,1,0,0-1.636H78.818A.818.818,0,0,0,78,27.818Z" transform="translate(-39.623 -11.821)" fill="#e64853"/>
    <path id="Path_115" data-name="Path 115" d="M63.636,45.454V43.818a.818.818,0,0,0-1.636,0v1.636a.818.818,0,0,0,1.636,0Z" transform="translate(-30.166 -21.277)" fill="#e64853"/>
    <path id="Path_116" data-name="Path 116" d="M62.818,10.272a.818.818,0,0,0,.818-.818V7.818a.818.818,0,1,0-1.636,0V9.454A.818.818,0,0,0,62.818,10.272Z" transform="translate(-30.166)" fill="#e64853"/>
    <path id="Path_117" data-name="Path 117" d="M49.251,15.408a.818.818,0,0,0,1.157-1.157l-1.157-1.157a.818.818,0,1,0-1.157,1.157Z" transform="translate(-21.806 -3.46)" fill="#e64853"/>
    <path id="Path_118" data-name="Path 118" d="M74.711,38.554a.818.818,0,0,0-1.157,1.157l1.157,1.157a.818.818,0,1,0,1.157-1.157Z" transform="translate(-36.853 -18.508)" fill="#e64853"/>
    <path id="Path_119" data-name="Path 119" d="M49.251,40.868l1.157-1.157a.818.818,0,0,0-1.157-1.157l-1.157,1.157a.818.818,0,1,0,1.157,1.157Z" transform="translate(-21.806 -18.508)" fill="#e64853"/>
    <path id="Path_120" data-name="Path 120" d="M74.711,15.408l1.157-1.157a.818.818,0,1,0-1.157-1.157l-1.157,1.157a.818.818,0,0,0,1.157,1.157Z" transform="translate(-36.853 -3.46)" fill="#e64853"/>
    <circle id="Ellipse_10" data-name="Ellipse 10" cx="0.818" cy="0.818" r="0.818" transform="translate(18.072 27.187)" fill="#e64853"/>
    <circle id="Ellipse_11" data-name="Ellipse 11" cx="0.818" cy="0.818" r="0.818" transform="translate(21.585 27.097)" fill="#e64853"/>
    <circle id="Ellipse_12" data-name="Ellipse 12" cx="0.818" cy="0.818" r="0.818" transform="translate(25.094 27.011)" fill="#e64853"/>
    <circle id="Ellipse_13" data-name="Ellipse 13" cx="0.818" cy="0.818" r="0.818" transform="translate(28.607 26.921)" fill="#e64853"/>
    <circle id="Ellipse_14" data-name="Ellipse 14" cx="0.818" cy="0.818" r="0.818" transform="translate(32.12 26.831)" fill="#e64853"/>
  </g>
</svg>
