<svg xmlns="http://www.w3.org/2000/svg" width="100" height="59.677" viewBox="0 0 100 59.677">
  <g id="Group_107" data-name="Group 107" transform="translate(-1 -13)">
    <g id="Group_106" data-name="Group 106" transform="translate(1 13)">
      <path id="Path_111" data-name="Path 111" d="M19.956,36.068,8.666,28.687a1.613,1.613,0,0,0-2.492,1.25l-.45,7.182A1.611,1.611,0,0,0,6.492,38.6l6.452,3.958a1.612,1.612,0,0,0,1.776-.061l5.289-3.76a1.612,1.612,0,0,0-.052-2.664Zm-6.237,3.176L9,36.352,9.221,32.9l6.992,4.569Z" transform="translate(1.894 -3.547)" fill="#e64853"/>
      <path id="Path_112" data-name="Path 112" d="M49,37.386a1.61,1.61,0,0,0,.679,1.345l5.289,3.76a1.612,1.612,0,0,0,1.776.061L63.2,38.594a1.615,1.615,0,0,0,.768-1.476l-.45-7.182a1.613,1.613,0,0,0-2.492-1.25l-11.29,7.381A1.62,1.62,0,0,0,49,37.386ZM60.466,32.9l.216,3.448-4.714,2.892-2.494-1.771Z" transform="translate(28.419 -3.547)" fill="#e64853"/>
      <path id="Path_113" data-name="Path 113" d="M97.773,30.742a1.61,1.61,0,0,0,1.142-.473l1.613-1.614a1.614,1.614,0,0,0,.3-1.861l-1.613-3.224a1.615,1.615,0,0,0-1.444-.892H91.322a1.606,1.606,0,0,0-1.14.473l-1.613,1.613a1.612,1.612,0,0,0-.3,1.861l1.253,2.5L88.9,30.361l-2.3-4.6a21.121,21.121,0,0,0-5.655-7l-.039-.031A20.858,20.858,0,0,0,69.24,14.213L51.108,13a1.587,1.587,0,0,0-.215,0l-18.132,1.21A20.86,20.86,0,0,0,21.1,18.732a.438.438,0,0,0-.04.031,21.121,21.121,0,0,0-5.655,7l-2.3,4.6-.616-1.232,1.252-2.5a1.612,1.612,0,0,0-.3-1.861L11.816,23.15a1.6,1.6,0,0,0-1.139-.473H4.226a1.615,1.615,0,0,0-1.444.892L1.17,26.794a1.614,1.614,0,0,0,.3,1.861l1.613,1.614a1.61,1.61,0,0,0,1.142.473H9.681l.768,1.537-3.718,1.86a1.627,1.627,0,0,0-.621.548L2.884,39.526a1.613,1.613,0,0,0-.271.894V60.977a4.945,4.945,0,0,0,1.618,3.635h0V67.74a4.894,4.894,0,0,0,4.839,4.937h6.452a4.852,4.852,0,0,0,4.671-3.718l4.845.484a1.367,1.367,0,0,0,.161.008,1.6,1.6,0,0,0,.635-.131l5.243-2.247.744,1.487a1.612,1.612,0,0,0,1.442.89H68.741a1.615,1.615,0,0,0,1.444-.892l.744-1.487,5.243,2.247a1.556,1.556,0,0,0,.634.132,1.367,1.367,0,0,0,.161-.008l4.816-.482a4.767,4.767,0,0,0,4.7,3.716h6.452a4.894,4.894,0,0,0,4.839-4.937V64.612h0a4.945,4.945,0,0,0,1.618-3.635V40.419a1.622,1.622,0,0,0-.271-.9l-3.226-4.839a1.616,1.616,0,0,0-.621-.548l-3.718-1.86.768-1.535ZM23.034,21.308a.327.327,0,0,0,.037-.029,17.649,17.649,0,0,1,9.9-3.848L51,16.229l18.026,1.2a17.66,17.66,0,0,1,9.9,3.848l.035.029A17.857,17.857,0,0,1,83.715,27.2l1.769,3.539-68.972,0,1.771-3.54a17.893,17.893,0,0,1,4.75-5.893ZM84.2,33.966l-9.855,9.856L63.677,46.871H57.832l-2.885-1.444a1.617,1.617,0,0,0-.721-.169H47.774a1.617,1.617,0,0,0-.721.169l-2.885,1.444H38.322L27.674,43.829l-9.347-9.861Zm-74.52-6.45H4.9L4.576,27.2,5.223,25.9H10.01l.318.318Zm-1.906,32.9a1.612,1.612,0,0,0-.323.968v1.627l-.876-.6a1.731,1.731,0,0,1-.737-1.435V50.764l5.243,5.243Zm7.742,9.032H9.065A1.666,1.666,0,0,1,7.452,67.74v-.813l.316.218A1.592,1.592,0,0,0,8.9,67.83l7.958.8a1.57,1.57,0,0,1-1.345.826Zm50.635-7.934-1.269,2.964L67.957,65.8l-.213.426H34.255l-.213-.426,3.076-1.318-1.269-2.964-10.91,4.674L10.678,64.766V61.924L14.444,56.9l18.568,2.856a1.589,1.589,0,0,0,.247.019H68.74a1.554,1.554,0,0,0,.245-.019L87.552,56.9l3.769,5.024v2.842L77.059,66.191Zm28.074-1.1-3.308-4.411,5.243-5.243V60.977a1.736,1.736,0,0,1-.737,1.437l-.876.6V61.387a1.612,1.612,0,0,0-.323-.968Zm-1.29,9.032H86.483a1.572,1.572,0,0,1-1.345-.824l7.958-.8a1.586,1.586,0,0,0,1.135-.685l.316-.218v.813a1.665,1.665,0,0,1-1.613,1.71ZM96.16,40.908v5.3l-7.219,7.219L68.617,56.548H33.38L13.058,53.422,5.839,46.2v-5.3L8.557,36.83,14.013,34.1,25.637,46.366a1.6,1.6,0,0,0,.727.44l11.29,3.226a1.511,1.511,0,0,0,.442.065h6.452a1.617,1.617,0,0,0,.721-.169l2.885-1.444h5.689l2.885,1.444a1.628,1.628,0,0,0,.723.169H63.9a1.565,1.565,0,0,0,.442-.063l11.29-3.226a1.609,1.609,0,0,0,.7-.41L88.412,34.316l5.031,2.516Zm-4.171-15h4.787l.647,1.294-.319.319H92.318l-.647-1.3Z" transform="translate(-1 -13)" fill="#e64853"/>
      <path id="Path_114" data-name="Path 114" d="M31,36h3.226v3.226H31Z" transform="translate(17.387 1.096)" fill="#e64853"/>
      <path id="Path_115" data-name="Path 115" d="M0,0H13.874V3.226H0Z" transform="translate(44.228 13.206) rotate(-35.518)" fill="#e64853"/>
    </g>
  </g>
</svg>
