<svg xmlns="http://www.w3.org/2000/svg" width="25.435" height="45" viewBox="0 0 25.435 45">
  <g id="Group_106" data-name="Group 106" transform="translate(-117.333 -10.667)">
    <path id="Path_111" data-name="Path 111" d="M139.833,21.428h-.978V13.6a2.938,2.938,0,0,0-2.935-2.935H124.181a2.938,2.938,0,0,0-2.935,2.935v7.826h-.978a2.938,2.938,0,0,0-2.935,2.935V42.555a4.916,4.916,0,0,0,1.072,3.056l1.881,2.351a4.87,4.87,0,0,0,3.819,1.835h.075v3.913a1.959,1.959,0,0,0,1.956,1.956h7.826a1.959,1.959,0,0,0,1.956-1.956V49.8H136a4.873,4.873,0,0,0,3.82-1.835l1.88-2.351a4.916,4.916,0,0,0,1.072-3.056V24.363A2.938,2.938,0,0,0,139.833,21.428ZM123.2,13.6a.979.979,0,0,1,.978-.978H135.92a.979.979,0,0,1,.978.978v7.826H123.2Zm10.761,40.109h-7.826V49.8h7.826Zm6.848-11.155a2.941,2.941,0,0,1-.644,1.833l-1.879,2.351a2.924,2.924,0,0,1-2.293,1.1h-11.89a2.92,2.92,0,0,1-2.292-1.1l-1.88-2.351a2.941,2.941,0,0,1-.644-1.833V24.363a.979.979,0,0,1,.978-.978h19.565a.979.979,0,0,1,.978.978Z" fill="#e64853"/>
    <path id="Path_112" data-name="Path 112" d="M205.6,53.333h-1.957a.978.978,0,1,0,0,1.957H205.6a.978.978,0,1,0,0-1.957Z" transform="translate(-77.507 -38.753)" fill="#e64853"/>
    <path id="Path_113" data-name="Path 113" d="M269.6,53.333h-1.957a.978.978,0,1,0,0,1.957H269.6a.978.978,0,1,0,0-1.957Z" transform="translate(-135.637 -38.753)" fill="#e64853"/>
    <path id="Path_114" data-name="Path 114" d="M211.471,184.268a.978.978,0,0,0-.978.978v3.424l-1.956,1.467v-7.826a.978.978,0,0,0-1.957,0v9.783l-1.956-1.467V187.2a.978.978,0,1,0-1.957,0v3.913a.977.977,0,0,0,.392.782l3.522,2.641v4.4a.978.978,0,1,0,1.957,0v-6.359l3.522-2.641a.978.978,0,0,0,.392-.782v-3.913a.978.978,0,0,0-.979-.978Z" transform="translate(-77.507 -155.014)" fill="#e64853"/>
  </g>
</svg>
