<svg xmlns="http://www.w3.org/2000/svg" width="60" height="52.969" viewBox="0 0 60 52.969">
  <g id="Group_107" data-name="Group 107" transform="translate(-0.001 -30)">
    <g id="Group_106" data-name="Group 106" transform="translate(0.001 30)">
      <path id="Path_111" data-name="Path 111" d="M59.563,133.514a52.841,52.841,0,0,0-8.581-7.464c-13.9-9.776-27.5-10.169-41.963,0a52.843,52.843,0,0,0-8.581,7.464,1.758,1.758,0,0,0,0,2.322A52.84,52.84,0,0,0,9.02,143.3c13.9,9.776,27.5,10.169,41.963,0a52.853,52.853,0,0,0,8.581-7.464A1.758,1.758,0,0,0,59.563,133.514Zm-16.795,1.161A12.768,12.768,0,1,1,30,122.059,12.707,12.707,0,0,1,42.768,134.675Zm-38.578,0A50.129,50.129,0,0,1,16.544,125.6a15.971,15.971,0,0,0,0,18.145A50.143,50.143,0,0,1,4.19,134.675Zm39.268,9.073a15.971,15.971,0,0,0,0-18.145,50.143,50.143,0,0,1,12.354,9.073A50.132,50.132,0,0,1,43.457,143.748Z" transform="translate(-0.001 -108.191)" fill="#e64853"/>
      <path id="Path_112" data-name="Path 112" d="M191.751,214.516h1.03l-2.788,2.788-2.276-2.276a1.758,1.758,0,0,0-2.486,0l-3.486,3.486A1.758,1.758,0,0,0,184.232,221l2.243-2.243,2.276,2.276a1.758,1.758,0,0,0,2.486,0l4.03-4.03v.444a1.758,1.758,0,0,0,3.516,0v-4.687A1.758,1.758,0,0,0,197.025,211h-5.273a1.758,1.758,0,0,0,0,3.516Z" transform="translate(-159.993 -189.789)" fill="#e64853"/>
      <path id="Path_113" data-name="Path 113" d="M242.758,37.031a1.758,1.758,0,0,0,1.758-1.758V31.758a1.758,1.758,0,1,0-3.516,0v3.516A1.758,1.758,0,0,0,242.758,37.031Z" transform="translate(-212.758 -30)" fill="#e64853"/>
      <path id="Path_114" data-name="Path 114" d="M347.377,68.611a1.758,1.758,0,0,0,2.4-.643l1.758-3.045a1.758,1.758,0,0,0-3.045-1.758l-1.758,3.045A1.758,1.758,0,0,0,347.377,68.611Z" transform="translate(-305.892 -58.502)" fill="#e64853"/>
      <path id="Path_115" data-name="Path 115" d="M242.758,421A1.758,1.758,0,0,0,241,422.758v3.633a1.758,1.758,0,0,0,3.516,0v-3.633A1.758,1.758,0,0,0,242.758,421Z" transform="translate(-212.758 -375.18)" fill="#e64853"/>
      <path id="Path_116" data-name="Path 116" d="M349.278,393.741a1.758,1.758,0,0,0-3.045,1.758l1.816,3.146a1.758,1.758,0,1,0,3.045-1.758Z" transform="translate(-305.451 -350.339)" fill="#e64853"/>
      <path id="Path_117" data-name="Path 117" d="M122.491,67.968a1.758,1.758,0,0,0,3.045-1.758l-1.758-3.045a1.758,1.758,0,1,0-3.045,1.758Z" transform="translate(-106.377 -58.503)" fill="#e64853"/>
      <path id="Path_118" data-name="Path 118" d="M124.951,393.1a1.757,1.757,0,0,0-2.4.643l-1.816,3.146a1.758,1.758,0,1,0,3.045,1.758l1.816-3.146a1.758,1.758,0,0,0-.643-2.4Z" transform="translate(-106.377 -350.339)" fill="#e64853"/>
    </g>
  </g>
</svg>
