<svg xmlns="http://www.w3.org/2000/svg" width="29.03" height="35" viewBox="0 0 29.03 35">
  <g id="Group_101" data-name="Group 101" transform="translate(-43.667)">
    <g id="Group_100" data-name="Group 100" transform="translate(43.667)">
      <path id="Path_103" data-name="Path 103" d="M43.936,31.335a1.025,1.025,0,0,0,1.086.279l4.39-1.491,1.835,4.257a1.025,1.025,0,0,0,.937.619h0a1.025,1.025,0,0,0,.938-.612l3.421-7.76a13.362,13.362,0,0,0,3.268,0l3.421,7.76a1.025,1.025,0,0,0,.938.612h0a1.025,1.025,0,0,0,.937-.619l1.835-4.257,4.39,1.491a1.025,1.025,0,0,0,1.268-1.385L68.759,21.5a13.33,13.33,0,1,0-21.154,0l-3.85,8.728A1.025,1.025,0,0,0,43.936,31.335Zm25.855-2.414-3.076-1.045a1.025,1.025,0,0,0-1.271.565l-1.279,2.967-2.292-5.2A13.329,13.329,0,0,0,67.25,23.16ZM46.9,13.4A11.279,11.279,0,1,1,58.182,24.678,11.327,11.327,0,0,1,46.9,13.4Zm2.212,9.762a13.329,13.329,0,0,0,5.377,3.049l-2.292,5.2-1.279-2.967a1.025,1.025,0,0,0-1.271-.565l-3.076,1.045Z" transform="translate(-43.667)" fill="#e64853"/>
      <path id="Path_104" data-name="Path 104" d="M158.25,99.487l-.6,3.5a1.025,1.025,0,0,0,1.488,1.081l3.139-1.65,3.139,1.65a1.025,1.025,0,0,0,1.488-1.081l-.6-3.5,2.54-2.476a1.025,1.025,0,0,0-.568-1.749l-3.51-.51-1.57-3.18a1.025,1.025,0,0,0-1.839,0l-1.57,3.18-3.51.51a1.025,1.025,0,0,0-.568,1.749Zm2.367-2.783a1.025,1.025,0,0,0,.772-.561l.889-1.8.889,1.8a1.026,1.026,0,0,0,.772.561l1.987.289-1.438,1.4a1.025,1.025,0,0,0-.295.908l.339,1.979-1.777-.934a1.025,1.025,0,0,0-.954,0l-1.777.934.339-1.979a1.026,1.026,0,0,0-.295-.908l-1.438-1.4Z" transform="translate(-147.762 -84.78)" fill="#e64853"/>
    </g>
  </g>
</svg>
