<svg id="Group_107" data-name="Group 107" xmlns="http://www.w3.org/2000/svg" width="45" height="45" viewBox="0 0 45 45">
  <path id="Path_117" data-name="Path 117" d="M55.366,55.55c8.411-3.639,22.1-3.639,30.509,0a1.142,1.142,0,0,0,.447.092,1.125,1.125,0,0,0,1.047-1.536,17.982,17.982,0,0,0-33.5,0,1.125,1.125,0,0,0,1.494,1.444ZM70.62,44.918a15.633,15.633,0,0,1,13.444,7.559A45.092,45.092,0,0,0,70.62,50.546a45.091,45.091,0,0,0-13.444,1.931A15.633,15.633,0,0,1,70.62,44.918Zm0,0" transform="translate(-48.12 -38.168)" fill="#e64853"/>
  <path id="Path_118" data-name="Path 118" d="M22.5,0A22.5,22.5,0,1,0,45,22.5,22.5,22.5,0,0,0,22.5,0Zm0,42.75A20.25,20.25,0,1,1,42.75,22.5,20.25,20.25,0,0,1,22.5,42.75Zm0,0" fill="#e64853"/>
  <path id="Path_119" data-name="Path 119" d="M250.867,214.731a1.141,1.141,0,0,0-.892-.317c-8.824.823-13.654,6.312-14.355,16.317a1.123,1.123,0,0,0,1.353,1.18A18.049,18.049,0,0,0,251.2,215.615a1.122,1.122,0,0,0-.334-.885Zm-12.851,14.582c.91-7.322,4.451-11.422,10.779-12.479A15.816,15.816,0,0,1,238.017,229.313Zm0,0" transform="translate(-210.768 -191.796)" fill="#e64853"/>
  <path id="Path_120" data-name="Path 120" d="M44.492,214.422a1.173,1.173,0,0,0-.892.317,1.122,1.122,0,0,0-.334.885,18.048,18.048,0,0,0,14.228,16.295,1.11,1.11,0,0,0,.23.024,1.124,1.124,0,0,0,1.122-1.2c-.7-10-5.531-15.494-14.354-16.317Zm1.18,2.42C52,217.9,55.541,222,56.451,229.321a15.816,15.816,0,0,1-10.778-12.479Zm0,0" transform="translate(-38.7 -191.804)" fill="#e64853"/>
  <path id="Path_121" data-name="Path 121" d="M179.668,175.168a4.5,4.5,0,1,0-4.5,4.5A4.5,4.5,0,0,0,179.668,175.168Zm-4.5,2.25a2.25,2.25,0,1,1,2.25-2.25A2.25,2.25,0,0,1,175.168,177.418Zm0,0" transform="translate(-152.668 -152.668)" fill="#e64853"/>
</svg>
